<svg xmlns="http://www.w3.org/2000/svg" width="42.916" height="65.243" viewBox="0 0 42.916 65.243">
  <defs>
    <style>
      .cls-1 {
        fill: #999;
      }
    </style>
  </defs>
  <g id="chips" transform="translate(-0.5 0)">
    <path id="Path_11" data-name="Path 11" class="cls-1" d="M41.24,1.115C38.972-.7,35.668.038,31.482.971a43.435,43.435,0,0,1-9.525,1.364A43.435,43.435,0,0,1,12.432.971C8.246.038,4.941-.7,2.676,1.115,1.191,2.3.5,4.341.5,7.527A20.54,20.54,0,0,0,.922,11.7,12.961,12.961,0,0,0,.5,15.232,20.513,20.513,0,0,0,.922,19.4,12.968,12.968,0,0,0,.5,22.937a20.513,20.513,0,0,0,.422,4.171A12.964,12.964,0,0,0,.5,30.64a20.558,20.558,0,0,0,.363,3.814A13.468,13.468,0,0,0,.5,37.791a20.517,20.517,0,0,0,.422,4.171A12.968,12.968,0,0,0,.5,45.5c0,11.441,9.024,19.747,21.458,19.747s21.458-8.3,21.458-19.747a12.928,12.928,0,0,0-.422-3.534,20.536,20.536,0,0,0,.422-4.171,13.474,13.474,0,0,0-.363-3.337,20.571,20.571,0,0,0,.363-3.814,12.923,12.923,0,0,0-.422-3.533,20.536,20.536,0,0,0,.422-4.171,12.928,12.928,0,0,0-.422-3.534,20.536,20.536,0,0,0,.422-4.171,12.921,12.921,0,0,0-.422-3.533,20.544,20.544,0,0,0,.422-4.172c0-3.185-.692-5.224-2.176-6.412ZM23.673,54.792c-.563.04-1.135.063-1.715.063s-1.152-.023-1.715-.063A19.266,19.266,0,0,1,7.8,49.346c-.013-.013-.027-.025-.039-.039-.277-.283-.536-.581-.791-.882-.081-.1-.163-.188-.24-.285-.186-.231-.36-.472-.533-.713-.129-.181-.26-.361-.382-.547s-.222-.358-.33-.539c-.155-.262-.31-.523-.451-.794-.068-.131-.131-.267-.2-.4-.157-.322-.307-.648-.441-.982-.046-.111-.086-.225-.129-.337-.133-.35-.256-.707-.364-1.069-.04-.134-.075-.271-.113-.408-.11-.4-.215-.81-.3-1.227.034.051.071.1.105.152a19.459,19.459,0,0,0,8.7,7.189l.025.011a22.164,22.164,0,0,0,2.334.849c.083.025.165.054.248.079.336.1.678.185,1.023.268.307.075.618.141.932.205.292.059.582.12.881.168.54.09,1.091.157,1.645.212.19.019.383.034.576.048.656.05,1.318.083,1.993.083s1.337-.035,1.993-.083c.193-.014.385-.029.576-.048.555-.055,1.106-.122,1.645-.212.3-.048.589-.11.881-.168.314-.063.625-.13.932-.205.345-.083.686-.171,1.023-.268.083-.024.164-.054.246-.079a22.2,22.2,0,0,0,2.335-.85l.024-.011a19.447,19.447,0,0,0,8.7-7.19c.033-.051.071-.1.1-.151-.08.417-.185.823-.3,1.227-.036.137-.072.273-.113.407-.109.362-.232.718-.365,1.068-.043.114-.084.229-.128.342-.136.334-.286.659-.441.98-.066.134-.128.27-.2.4-.141.271-.3.533-.451.794-.109.181-.214.363-.33.539s-.254.366-.382.547c-.173.241-.346.483-.533.713-.078.1-.159.189-.24.283-.255.3-.515.6-.793.884l-.036.036a19.263,19.263,0,0,1-12.444,5.449ZM16.03,26.579c.178.043.357.079.535.118.471.1.944.192,1.43.266.446.07.9.129,1.353.174q.316.03.636.055c.651.048,1.306.083,1.973.083s1.323-.034,1.973-.083c.213-.016.425-.034.636-.055.457-.046.907-.105,1.354-.174.486-.074.959-.165,1.43-.266.179-.039.36-.075.535-.118a20.063,20.063,0,0,0,12.644-8.754l.023-.034c-.075.517-.174,1.022-.293,1.518-.022.091-.051.179-.074.27-.109.42-.227.835-.366,1.241-.025.072-.055.141-.081.213-.145.4-.3.8-.479,1.187-.05.11-.107.216-.159.326-.158.329-.325.652-.5.968-.1.173-.207.341-.311.51-.143.232-.29.461-.445.685s-.338.465-.517.692c-.107.138-.215.276-.327.411q-.358.429-.747.833c-.059.062-.118.124-.178.185-.314.317-.64.624-.982.916-.008.008-.018.014-.025.023a18.871,18.871,0,0,1-8.14,3.984l-.073.015q-.737.163-1.5.279c-.164.024-.334.037-.5.057-.382.048-.763.1-1.152.126-.572.041-1.152.066-1.742.066s-1.171-.024-1.742-.066c-.39-.028-.771-.078-1.152-.126-.166-.02-.335-.033-.5-.057q-.762-.115-1.5-.279l-.073-.015a18.871,18.871,0,0,1-8.14-3.984l-.025-.023c-.341-.292-.666-.6-.982-.916l-.178-.185q-.388-.4-.747-.833c-.111-.134-.22-.273-.327-.411-.179-.227-.351-.456-.517-.692s-.3-.453-.444-.684c-.106-.169-.213-.336-.312-.511-.18-.315-.345-.639-.5-.968-.052-.109-.11-.216-.159-.326-.175-.386-.333-.783-.479-1.187-.025-.071-.056-.141-.081-.213-.139-.4-.257-.821-.366-1.241-.023-.091-.052-.178-.074-.269-.119-.5-.218-1-.293-1.518l.023.034A20.05,20.05,0,0,0,16.03,26.579ZM40.552,25.5c-.075.518-.175,1.024-.3,1.522-.02.085-.047.164-.068.247-.11.428-.231.851-.373,1.265-.021.063-.048.124-.071.187-.148.412-.31.818-.49,1.213-.046.1-.1.2-.146.3-.162.34-.334.672-.519,1-.094.163-.195.32-.292.479-.15.243-.3.484-.467.719s-.323.444-.492.66c-.115.15-.232.3-.352.445q-.346.412-.722.8c-.068.071-.137.143-.207.215-.306.307-.623.605-.952.889l-.058.049a18.871,18.871,0,0,1-8.122,3.973l-.093.019c-.486.107-.979.2-1.48.275-.17.025-.346.039-.518.059-.377.047-.753.1-1.136.125-.573.041-1.152.066-1.742.066s-1.171-.024-1.742-.066c-.384-.028-.76-.077-1.136-.125-.172-.021-.347-.035-.518-.059-.5-.075-.995-.168-1.48-.275l-.093-.019a18.867,18.867,0,0,1-8.122-3.973l-.057-.049c-.331-.285-.648-.582-.952-.889-.07-.071-.138-.142-.207-.215q-.373-.391-.72-.8c-.121-.146-.238-.3-.353-.445-.169-.216-.335-.435-.492-.66s-.316-.475-.467-.719c-.1-.158-.2-.316-.292-.479-.185-.325-.357-.658-.519-1-.048-.1-.1-.2-.146-.3-.18-.4-.341-.8-.489-1.213-.023-.063-.05-.124-.071-.187-.142-.412-.262-.836-.373-1.265-.021-.083-.048-.164-.068-.247-.12-.5-.22-1-.3-1.522l.008.01a20.051,20.051,0,0,0,12.66,8.777c.174.041.352.078.529.116.472.1.947.193,1.432.267.447.07.9.129,1.354.174q.316.03.636.055c.651.049,1.306.083,1.973.083s1.324-.034,1.973-.083c.213-.016.425-.033.636-.055.456-.046.907-.1,1.354-.174.486-.074.961-.166,1.432-.267.177-.039.356-.074.529-.116a20.055,20.055,0,0,0,12.66-8.777.022.022,0,0,0,.012-.01Zm0,7.7c-.067.463-.161.915-.264,1.362-.04.178-.089.352-.134.528-.092.345-.189.686-.3,1.021-.045.134-.094.264-.142.4-.13.354-.268.7-.421,1.043-.055.122-.113.243-.17.364q-.238.495-.5.969-.115.2-.235.4-.257.425-.54.831c-.111.16-.224.317-.341.471-.169.225-.346.445-.527.663-.157.186-.317.372-.481.551s-.312.329-.471.49c-.211.212-.425.42-.648.621-.126.114-.258.224-.388.334-.27.227-.542.451-.828.663-.1.071-.195.139-.292.209-.326.232-.658.458-1,.669-.067.042-.137.079-.2.121-.377.226-.763.442-1.16.64l-.145.069c-.418.205-.845.4-1.283.576-.043.017-.089.032-.131.05-.444.174-.895.337-1.358.481-.06.019-.123.034-.185.052-.448.136-.9.26-1.366.367-.111.025-.227.043-.338.067-.421.09-.845.174-1.279.24-.218.032-.445.051-.668.078-.338.04-.674.087-1.019.113-.58.043-1.167.067-1.765.067s-1.186-.024-1.765-.067c-.345-.025-.682-.072-1.02-.113-.223-.026-.449-.044-.668-.078-.433-.066-.857-.15-1.279-.24-.111-.024-.228-.041-.338-.067-.464-.106-.919-.232-1.366-.367-.061-.019-.125-.034-.185-.052-.463-.145-.915-.307-1.357-.481-.043-.018-.089-.033-.131-.05-.439-.177-.865-.37-1.284-.576-.048-.023-.1-.046-.145-.069-.4-.2-.783-.416-1.16-.64-.068-.04-.137-.079-.2-.121-.345-.212-.678-.437-1-.669-.1-.07-.2-.138-.292-.209-.284-.212-.558-.434-.827-.663-.13-.11-.262-.22-.388-.334-.223-.2-.437-.409-.648-.621-.159-.161-.318-.323-.47-.49s-.325-.364-.482-.551c-.181-.216-.357-.437-.527-.663-.116-.154-.229-.313-.341-.471q-.282-.406-.54-.831c-.081-.131-.158-.266-.235-.4-.178-.316-.347-.64-.5-.969-.058-.121-.115-.242-.17-.364-.153-.341-.291-.689-.421-1.043-.048-.131-.1-.262-.142-.4-.113-.334-.21-.676-.3-1.021-.046-.176-.094-.35-.135-.528-.1-.447-.2-.9-.264-1.362l.012.018a20.056,20.056,0,0,0,12.656,8.77c.176.041.354.078.533.116.472.1.947.193,1.433.267.445.07.894.127,1.35.174q.318.03.639.055c.649.048,1.3.083,1.972.083s1.322-.034,1.972-.083c.215-.016.426-.034.64-.055.456-.046.905-.105,1.35-.174.486-.074.962-.166,1.433-.267.177-.039.357-.075.532-.116a20.056,20.056,0,0,0,12.657-8.77c0-.005.006-.01.01-.018ZM4.353,3.207a3.173,3.173,0,0,1,2-.52,28.641,28.641,0,0,1,5.495.9A45.6,45.6,0,0,0,21.958,5.015,45.6,45.6,0,0,0,32.066,3.588c3.346-.748,6.235-1.395,7.5-.381.777.622,1.171,2.076,1.171,4.32a16.6,16.6,0,0,1-2.116,8.245c-.074.129-.155.254-.233.381-.184.3-.374.6-.577.892-.143.2-.293.4-.445.6s-.3.374-.449.558c-.211.247-.425.491-.65.726-.1.1-.2.2-.3.3-.287.285-.579.565-.888.829l-.015.012A18.465,18.465,0,0,1,28.6,23.591l-.259.082c-.4.12-.8.224-1.21.322-.185.043-.37.083-.558.121-.347.072-.7.14-1.051.2-.3.047-.608.082-.915.115-.271.031-.539.067-.814.09-.6.047-1.213.077-1.837.077s-1.234-.03-1.837-.077c-.275-.021-.543-.057-.814-.09-.307-.035-.613-.07-.915-.115-.355-.056-.7-.124-1.051-.2-.188-.039-.373-.078-.558-.121-.409-.1-.813-.2-1.21-.322-.087-.025-.173-.053-.259-.082a18.5,18.5,0,0,1-6.464-3.527l-.014-.012c-.308-.264-.6-.544-.888-.829-.1-.1-.2-.2-.3-.3-.226-.235-.44-.478-.651-.726q-.231-.273-.449-.558c-.153-.2-.3-.394-.445-.6-.2-.29-.394-.589-.577-.892-.074-.129-.156-.252-.229-.381A16.6,16.6,0,0,1,3.182,7.527c0-2.244.393-3.7,1.171-4.32Zm36.2,44.851c-1.24,8.541-8.679,14.5-18.594,14.5S4.6,56.6,3.364,48.058c.006.01.014.021.023.033a20.056,20.056,0,0,0,12.64,8.753c.18.043.363.08.546.119.467.1.937.19,1.418.264.448.07.9.129,1.359.174.21.02.422.039.634.053.651.048,1.306.083,1.974.083s1.324-.034,1.974-.083c.213-.016.424-.033.635-.053.457-.046.911-.105,1.359-.174.481-.072.951-.165,1.418-.264.182-.039.366-.076.546-.119a20.059,20.059,0,0,0,12.64-8.753l.024-.033Zm0,0" transform="translate(0 0)"/>
    <path id="Path_12" data-name="Path 12" class="cls-1" d="M76.041,60.029a4.694,4.694,0,1,0-4.694-4.694A4.7,4.7,0,0,0,76.041,60.029Zm0-6.706a2.012,2.012,0,1,1-2.012,2.012A2.014,2.014,0,0,1,76.041,53.323Zm0,0" transform="translate(-61.46 -43.931)"/>
    <path id="Path_13" data-name="Path 13" class="cls-1" d="M196.832,113.383a2.012,2.012,0,1,1-2.012-2.011A2.012,2.012,0,0,1,196.832,113.383Zm0,0" transform="translate(-166.827 -96.614)"/>
    <path id="Path_14" data-name="Path 14" class="cls-1" d="M225.854,62.1a1.341,1.341,0,1,1-1.341-1.341A1.341,1.341,0,0,1,225.854,62.1Zm0,0" transform="translate(-193.167 -52.711)"/>
    <path id="Path_15" data-name="Path 15" class="cls-1" d="M144.881,143.075a1.341,1.341,0,1,1-1.341-1.341A1.341,1.341,0,0,1,144.881,143.075Zm0,0" transform="translate(-122.923 -122.954)"/>
    <path id="Path_16" data-name="Path 16" class="cls-1" d="M43.667,41.861a1.341,1.341,0,1,1-1.341-1.341A1.341,1.341,0,0,1,43.667,41.861Zm0,0" transform="translate(-35.12 -35.151)"/>
  </g>
</svg>
