<svg id="coffee-cup" xmlns="http://www.w3.org/2000/svg" width="44.197" height="65.243" viewBox="0 0 44.197 65.243">
  <path id="Path_4" data-name="Path 4" d="M43.145,13.68V10.523a1.178,1.178,0,0,0-.03-.153.7.7,0,0,0-.161-.421.97.97,0,0,0-.075-.128L34.46.35A1.053,1.053,0,0,0,33.674,0H10.523a1.054,1.054,0,0,0-.786.352L1.318,9.823a.9.9,0,0,0-.075.129,1.031,1.031,0,0,0-.117.2,1.07,1.07,0,0,0-.044.22,1.015,1.015,0,0,0-.03.152V13.68A1.052,1.052,0,0,0,0,14.732v5.262a1.052,1.052,0,0,0,1.052,1.052H2.265l7.22,43.318a1.052,1.052,0,0,0,1.037.879H33.674a1.052,1.052,0,0,0,1.037-.879l7.22-43.318h1.213A1.052,1.052,0,0,0,44.2,19.994V14.732a1.052,1.052,0,0,0-1.052-1.052ZM11,2.1H33.2l6.548,7.366H4.448ZM3.157,11.575H41.04v2.1H3.157ZM32.782,63.138H11.415L4.4,21.046H39.8Zm9.31-44.2H2.1V15.785H42.092Zm0,0" transform="translate(0 0)" fill="#999"/>
  <path id="Path_5" data-name="Path 5" d="M94.37,415.362h2.66a1.052,1.052,0,0,0,0-2.1H95.261l-.73-4.383a1.053,1.053,0,0,0-2.076.346l.877,5.262a1.053,1.053,0,0,0,1.039.88Zm0,0" transform="translate(-80.281 -354.328)" fill="#999"/>
</svg>
