<svg xmlns="http://www.w3.org/2000/svg" width="42.635" height="65.243" viewBox="0 0 42.635 65.243">
  <defs>
    <style>
      .cls-1 {
        fill: #999;
      }
    </style>
  </defs>
  <g id="cupcake" transform="translate(-88.71)">
    <g id="Group_5" data-name="Group 5" transform="translate(88.71)">
      <path id="Path_10" data-name="Path 10" class="cls-1" d="M125.674,33.79h-1.027a5.685,5.685,0,0,0,1.431-3.774v-.076a5.689,5.689,0,0,0-5.671-5.693h-.835A5.677,5.677,0,0,0,121,20.473v-.078a5.7,5.7,0,0,0-3.439-5.232.959.959,0,1,0-.768,1.757,3.778,3.778,0,0,1,2.3,3.475v.078a3.77,3.77,0,0,1-3.759,3.773h-6.057a.96.96,0,0,0,0,1.919h11.132a3.772,3.772,0,0,1,3.759,3.774v.076a3.772,3.772,0,0,1-3.759,3.774h-6.722a.96.96,0,0,0,0,1.919h11.988a3.771,3.771,0,0,1,3.759,3.774v.076a3.771,3.771,0,0,1-3.759,3.774H94.381a3.771,3.771,0,0,1-3.759-3.774v-.076a3.771,3.771,0,0,1,3.759-3.774h14.782a.959.959,0,0,0,0-1.918H99.647a3.772,3.772,0,0,1-3.759-3.774v-.076a3.772,3.772,0,0,1,3.759-3.774h5.3a.96.96,0,1,0,0-1.919h-.226a3.77,3.77,0,0,1-3.759-3.773v-.078a3.77,3.77,0,0,1,3.759-3.773h8.126a.96.96,0,1,0,0-1.919h-.483l5.663-5.376A5.4,5.4,0,0,0,114.329,0a5.346,5.346,0,0,0-3.7,1.472l-.605.575-.605-.575a5.382,5.382,0,0,0-7.61.214,5.426,5.426,0,0,0,.214,7.641l5.663,5.376h-2.967a5.688,5.688,0,0,0-5.671,5.692v.078a5.677,5.677,0,0,0,1.43,3.773h-.835a5.689,5.689,0,0,0-5.671,5.693v.076a5.685,5.685,0,0,0,1.431,3.774H94.381a5.688,5.688,0,0,0-5.671,5.693v.076a5.7,5.7,0,0,0,4.336,5.533l4.294,19.4a.955.955,0,0,0,.933.752h23.508a.955.955,0,0,0,.933-.752l4.294-19.4a5.7,5.7,0,0,0,4.336-5.533v-.076A5.688,5.688,0,0,0,125.674,33.79ZM103.339,7.932A3.5,3.5,0,0,1,103.2,3a3.475,3.475,0,0,1,4.909-.138l1.262,1.2a.951.951,0,0,0,1.312,0l1.262-1.2A3.475,3.475,0,0,1,116.854,3a3.5,3.5,0,0,1-.138,4.928l-6.689,6.348Zm-4.3,55.391-4-18.071h6.02l2.264,18.071Zm10.032,0H105.25l-2.264-18.071h6.086Zm1.911,0V45.253h6.343l-2.264,18.071Zm10.032,0h-4.028l2.266-18.071h5.762Z" transform="translate(-88.71)"/>
    </g>
  </g>
</svg>
