<svg xmlns="http://www.w3.org/2000/svg" width="46.13" height="65.243" viewBox="0 0 46.13 65.243">
  <defs>
    <style>
      .cls-1 {
        fill: #999;
      }
    </style>
  </defs>
  <g id="french-fries" transform="translate(-74.997)">
    <path id="Path_8" data-name="Path 8" class="cls-1" d="M120.6,24.385a2.829,2.829,0,0,0-2.134-1h-2.45l2.074-11.979a1.387,1.387,0,0,0-1.129-1.6l-5.038-.874v-2.5A1.441,1.441,0,0,0,110.483,5h-4.908V1.425A1.429,1.429,0,0,0,104.147,0h-5.4a1.429,1.429,0,0,0-1.429,1.425V15.193H92.882v-5.6a1.456,1.456,0,0,0-1.454-1.454H86.964l-.277-3.71a1.538,1.538,0,0,0-1.649-1.416L79.879,3.4a1.536,1.536,0,0,0-1.427,1.65L79.82,23.385H77.654a2.826,2.826,0,0,0-2.136,1,2.169,2.169,0,0,0-.481,1.821l7.181,36.578a2.741,2.741,0,0,0,2.617,2.457h26.45a2.75,2.75,0,0,0,2.62-2.455l3-15.308a.956.956,0,0,0-1.876-.368l-3,15.306c-.03.153-.208.914-.745.914H84.835c-.537,0-.711-.758-.741-.912L76.913,25.838A.27.27,0,0,1,77,25.6a.907.907,0,0,1,.658-.3h7.989a13.417,13.417,0,0,0,4.182,8.8,12.184,12.184,0,0,0,8.235,3.676A12.187,12.187,0,0,0,106.3,34.1a13.4,13.4,0,0,0,4.181-8.8h7.989a.91.91,0,0,1,.659.3.275.275,0,0,1,.085.239l-3.293,16.775a.956.956,0,1,0,1.876.368l3.293-16.776a2.175,2.175,0,0,0-.486-1.821ZM84.623,9.592V23.385H81.736L80.386,5.276l4.423-.331.268,3.594A1.448,1.448,0,0,0,84.623,9.592ZM90.97,32.538a11.491,11.491,0,0,1-3.426-7.481,1.738,1.738,0,0,0-.478-1.339,1.236,1.236,0,0,0-.532-.275V10.05H90.97V32.538Zm6.347,3.283a9.975,9.975,0,0,1-4.436-1.7V17.1h4.436Zm12.694-12.432a1.443,1.443,0,0,0-.958.329,1.739,1.739,0,0,0-.478,1.34,11.373,11.373,0,0,1-3,7.031V21.408a.956.956,0,1,0-1.911,0V33.82a10.436,10.436,0,0,1-4.436,1.945V1.911h4.436V16.986a.956.956,0,1,0,1.911,0V6.907h4.436V23.389Zm1.911,0V10.873l4.194.728-2.041,11.785h-2.154Z"/>
    <path id="Path_9" data-name="Path 9" class="cls-1" d="M178.558,323.888a14.37,14.37,0,0,0-7.641,2.036c-2.194,1.4-3.4,3.3-3.4,5.35s1.208,3.949,3.4,5.348a15.349,15.349,0,0,0,15.282,0c2.194-1.4,3.4-3.3,3.4-5.348s-1.208-3.952-3.4-5.35A14.371,14.371,0,0,0,178.558,323.888Zm9.132,7.385c0,2.967-4.182,5.474-9.132,5.474s-9.132-2.507-9.132-5.474,4.182-5.474,9.132-5.474S187.69,328.306,187.69,331.273Z" transform="translate(-80.729 -282.616)"/>
  </g>
</svg>
