<svg xmlns="http://www.w3.org/2000/svg" width="20" height="25.995" viewBox="0 0 20 25.995">
  <defs>
    <style>
      .cls-1 {
        fill: #aeaba4;
      }
    </style>
  </defs>
  <path id="ic_pin" class="cls-1" d="M10.625.457C5.281.457,0,4.02,0,9.785c0,3.667,2.062,5.75,3.313,5.75.516,0,.813-1.437.813-1.844,0-.484-1.234-1.516-1.234-3.531A7.039,7.039,0,0,1,10.2,3c3.547,0,6.172,2.016,6.172,5.719,0,2.766-1.109,7.953-4.7,7.953a2.313,2.313,0,0,1-2.406-2.281c0-1.969,1.375-3.875,1.375-5.906,0-3.448-4.891-2.823-4.891,1.344a6.119,6.119,0,0,0,.5,2.641c-.719,3.094-2.187,7.7-2.187,10.891,0,.984.141,1.953.234,2.938.177.2.089.177.359.078,2.625-3.594,2.531-4.3,3.719-9a4.224,4.224,0,0,0,3.609,1.875C17.516,19.254,20,13.863,20,9,20,3.832,15.531.457,10.625.457Z" transform="translate(0 -0.457)"/>
</svg>
