<svg xmlns="http://www.w3.org/2000/svg" xmlns:xlink="http://www.w3.org/1999/xlink" width="536" height="536" viewBox="0 0 536 536">
  <defs>
    <clipPath id="clip-path">
      <path id="Path_78" data-name="Path 78" d="M209.144,216.607,202,192.342l7.144-27.289,45.434-15.383,42.862,20.943,23.622,70.152c-3.108,5.882-8.977,11.382-17.621,15.8-22.931,11.7-58.126,11.287-80.415-.9L221.836,255C203.845,244.622,199.619,229.287,209.144,216.607Z" transform="translate(-202 -149.67)" fill="none"/>
    </clipPath>
  </defs>
  <g id="ilus-stand" transform="translate(0.172 0.172)">
    <g id="Layer_1" data-name="Layer 1" transform="translate(-0.172 -0.172)">
      <line id="Line_2" data-name="Line 2" y2="536" transform="translate(268)" fill="#fff"/>
      <path id="Path_21" data-name="Path 21" d="M270.088,278.76,146.477,350.138c-14.549,8.406-38.1,8.406-52.7,0s-14.549-22.027,0-30.432L217.4,248.339c14.549-8.406,38.1-8.406,52.7,0S284.637,270.366,270.088,278.76Z" transform="translate(15.969 46.314)" fill="#f3d081"/>
      <path id="Path_22" data-name="Path 22" d="M294.178,213.588,170.567,284.966c-14.549,8.406-38.1,8.406-52.7,0s-14.549-22.027,0-30.421l123.623-71.366c14.549-8.406,38.1-8.406,52.7,0S308.739,205.194,294.178,213.588Z" transform="translate(20.561 33.892)" fill="#f3d081"/>
      <path id="Path_23" data-name="Path 23" d="M271.568,328.7,147.957,400.066c-14.549,8.406-38.1,8.406-52.7,0s-14.549-22.027,0-30.42l123.623-71.366c14.549-8.406,38.1-8.406,52.7,0S286.129,320.294,271.568,328.7Z" transform="translate(16.251 55.833)" fill="#f3d081"/>
      <path id="Path_24" data-name="Path 24" d="M354.978,331.481,231.367,402.847c-14.549,8.406-38.1,8.406-52.7,0s-14.549-22.027,0-30.421L302.281,301c14.6-8.334,38.148-8.334,52.7,0S369.539,323.075,354.978,331.481Z" transform="translate(32.151 56.362)" fill="#f3d081"/>
      <path id="Path_25" data-name="Path 25" d="M429.148,289.868,305.537,361.306c-14.549,8.406-38.1,8.406-52.7,0s-14.549-22.027,0-30.42l123.623-71.366c14.549-8.406,38.1-8.406,52.7,0S443.709,281.534,429.148,289.868Z" transform="translate(46.29 48.445)" fill="#f3d081"/>
      <path id="Path_26" data-name="Path 26" d="M407.681,347.962l-86.594,50.006c-14.549,8.406-38.1,8.406-52.7,0s-14.549-22.027,0-30.432l86.594-50.006c14.549-8.406,38.1-8.406,52.7,0S422.231,339.532,407.681,347.962Z" transform="translate(49.254 59.503)" fill="#f3d081"/>
      <path id="Path_27" data-name="Path 27" d="M423.976,241.886l-123.6,71.33c-14.549,8.406-38.1,8.406-52.7,0s-14.549-22.027,0-30.42L371.3,211.429c14.549-8.406,38.1-8.406,52.7,0S438.549,233.444,423.976,241.886Z" transform="translate(45.306 39.278)" fill="#f3d081"/>
      <path id="Path_28" data-name="Path 28" d="M369.774,222.292,246.187,293.658c-14.549,8.406-38.1,8.406-52.7,0s-14.549-22.027,0-30.432l123.623-71.366c14.549-8.406,38.1-8.406,52.7,0S384.3,213.886,369.774,222.292Z" transform="translate(34.976 35.547)" fill="#f3d081"/>
      <path id="Path_29" data-name="Path 29" d="M142.922,307.529c11.906,6.906,11.906,18.086,0,25s-31.325,6.906-43.279,0-11.906-18.086,0-25S130.968,300.635,142.922,307.529Z" transform="translate(17.464 57.811)" fill="#f3d081" opacity="0.5"/>
      <path id="Path_30" data-name="Path 30" d="M199.958,322.895c12.883,7.441,12.883,19.5,0,26.944s-33.778,7.441-46.661,0-12.883-19.5,0-26.944S187.075,315.43,199.958,322.895Z" transform="translate(27.556 60.662)" fill="#f3d081" opacity="0.5"/>
      <path id="Path_31" data-name="Path 31" d="M239.309,357.89c11.24,6.489,11.24,17.014,0,23.515s-29.48,6.489-40.719,0-11.24-17.014,0-23.515S228.07,351.4,239.309,357.89Z" transform="translate(36.425 67.47)" fill="#f3d081" opacity="0.5"/>
      <path id="Path_32" data-name="Path 32" d="M371.963,247.656c0-2.953-1.965-5.858-5.739-8.025a28.063,28.063,0,0,0-13.835-3.31h-.8c-8.573,0-16.062,3.25-18.621,8.1-3.489,6.62-10.12,12.561-19.169,17.181-17.859,9.108-42.636,11.418-64.163,7.144l1.655-.322c8.334-1.488,13.895-5.751,13.871-10.62l.2-71.068V186.1c0-3-2.024-5.81-5.679-7.918-5.167-2.977-12.716-4.06-19.717-2.834-16.264,2.869-31.254,8.108-43.339,15.121-20.241,11.775-30.361,27.23-30.349,42.7v-.155l-.2,71.068c0,15.621,10.239,31.266,30.837,43.16l1.191.655c19.324,10.823,44.922,16.871,72.045,17s52.828-5.655,72.331-16.288c13.5-7.358,23.36-16.669,28.575-26.825a6.811,6.811,0,0,0,.774-3.084l.2-71.068Z" transform="translate(31.835 33.507)" fill="#f29854"/>
      <path id="Path_33" data-name="Path 33" d="M377.973,241.742c0-3.858-2.738-7.477-7.3-10.12a35.635,35.635,0,0,0-17.538-4.2h-.8c-10.93,0-20.419,4.191-23.61,10.239s-8.977,11.382-17.621,15.8c-22.931,11.7-58.126,11.287-80.415-.9L229.5,251.9c-10.216-5.953-15.99-13.395-17.336-21.086,1.357-7.584,7.025-14.942,17.014-20.753a75.616,75.616,0,0,1,24.563-8.584c10.358-1.857,17.6-7.239,17.562-13.514v-7.775c0-4-2.822-7.513-7.227-10.061-6.215-3.572-15.621-5.239-25-3.572-16.669,2.941-32.349,8.239-45.494,15.883-21.312,12.382-31.944,28.575-31.921,44.839v6.989c0,16.395,10.716,32.814,32.433,45.315l1.191.679c41.97,23.515,109.24,23.813,151.614.762,14.68-8.013,24.682-17.776,29.98-28.182a8.739,8.739,0,0,0,1.012-3.977v-7.144Z" transform="translate(30.992 31.801)" fill="#e88235"/>
      <path id="Path_34" data-name="Path 34" d="M370.656,231.622c6.1,3.572,8.989,8.8,6.3,14.073-5.3,10.406-15.3,20.169-29.98,28.182-42.386,23.1-109.657,22.741-151.59-.714l-1.191-.679c-43.041-24.848-43.279-65.151-.512-90,13.1-7.644,28.825-12.93,45.494-15.883,9.323-1.643,18.74,0,25,3.572,4.405,2.536,7.144,6.06,7.227,10.061v.631c0,6.275-7.144,11.668-17.562,13.514a75.617,75.617,0,0,0-24.646,8.537c-23.253,13.514-23.11,35.433.3,48.947l1.191.655c22.289,12.192,57.483,12.6,80.415.9,8.644-4.417,14.514-9.918,17.621-15.8s12.68-10.227,23.61-10.239h.8a35.636,35.636,0,0,1,17.526,4.239Z" transform="translate(31.011 31.812)" fill="#fff"/>
      <path id="Path_35" data-name="Path 35" d="M220.438,171.2v17.062c.131,1.75-.952,3.572-3.25,4.846a17.431,17.431,0,0,1-15.776,0c-2.179-1.262-3.262-2.905-3.262-4.548V171.2Z" transform="translate(37.948 32.811)" fill="#c6c6c6"/>
      <path id="Path_36" data-name="Path 36" d="M201.413,167.672c-4.358,2.512-4.358,6.6,0,9.108a17.431,17.431,0,0,0,15.776,0c4.358-2.512,4.358-6.6,0-9.108a17.431,17.431,0,0,0-15.776,0Z" transform="translate(37.947 31.778)" fill="#fff"/>
      <path id="Path_37" data-name="Path 37" d="M218.463,166.78v3.048c.119,1.476-.8,2.977-2.762,4.108a14.763,14.763,0,0,1-13.359,0,4.762,4.762,0,0,1-2.762-3.858v-3.286Z" transform="translate(38.22 31.968)" fill="#c6c6c6"/>
      <path id="Path_38" data-name="Path 38" d="M202.343,163.8c-3.691,2.131-3.691,5.584,0,7.715a14.764,14.764,0,0,0,13.359,0c3.691-2.131,3.691-5.584,0-7.715a14.764,14.764,0,0,0-13.359,0Z" transform="translate(38.22 31.095)" fill="#fff"/>
      <path id="Path_39" data-name="Path 39" d="M220.428,173.131v13.228a5.727,5.727,0,0,1-3.25,4.251,17.455,17.455,0,0,1-15.764,0c-2.179-1.262-3.274-2.905-3.274-4.548V173c0,1.643,1.1,3.286,3.274,4.536a17.4,17.4,0,0,0,15.764,0C219.3,176.322,220.369,174.726,220.428,173.131Z" transform="translate(37.946 33.154)" fill="#73b4c9"/>
      <path id="Path_40" data-name="Path 40" d="M209.01,189.776a14.466,14.466,0,0,1-6.989-1.643c-1.512-.869-2.381-1.965-2.381-3V177.81l.583.357a19.169,19.169,0,0,0,17.562,0l.56-.345v7.537a4.167,4.167,0,0,1-2.381,2.786,14.466,14.466,0,0,1-6.953,1.631Z" transform="translate(38.232 34.071)" fill="#fff"/>
      <path id="Path_41" data-name="Path 41" d="M212.978,181.857A13.394,13.394,0,0,1,204,181.8a1.286,1.286,0,0,0-1.619,1.369,1.465,1.465,0,0,0,.81,1.4,14.537,14.537,0,0,0,10.513.083,1.464,1.464,0,0,0,.881-1.393C214.585,182.25,213.775,181.571,212.978,181.857Z" transform="translate(38.753 34.822)" fill="#73b4c9"/>
      <path id="Path_42" data-name="Path 42" d="M203.368,188.09v17.062c.131,1.75-.952,3.572-3.25,4.846a17.431,17.431,0,0,1-15.776,0c-2.179-1.262-3.262-2.905-3.262-4.548V188.09Z" transform="translate(34.694 36.03)" fill="#c6c6c6"/>
      <path id="Path_43" data-name="Path 43" d="M184.343,184.562c-4.358,2.512-4.358,6.6,0,9.108a17.431,17.431,0,0,0,15.776,0c4.358-2.512,4.358-6.6,0-9.108a17.431,17.431,0,0,0-15.776,0Z" transform="translate(34.693 34.998)" fill="#fff"/>
      <path id="Path_44" data-name="Path 44" d="M201.393,183.67v3.048c.119,1.476-.8,2.977-2.762,4.108a14.764,14.764,0,0,1-13.359,0,4.762,4.762,0,0,1-2.762-3.858v-3.286Z" transform="translate(34.966 35.188)" fill="#c6c6c6"/>
      <path id="Path_45" data-name="Path 45" d="M185.273,180.686c-3.691,2.131-3.691,5.584,0,7.715a14.764,14.764,0,0,0,13.359,0c3.691-2.131,3.691-5.584,0-7.715a14.764,14.764,0,0,0-13.359,0Z" transform="translate(34.966 34.314)" fill="#fff"/>
      <path id="Path_46" data-name="Path 46" d="M203.368,190.027v13.228a5.727,5.727,0,0,1-3.25,4.251,17.455,17.455,0,0,1-15.764,0c-2.179-1.262-3.274-2.905-3.274-4.548v-13.1c0,1.643,1.1,3.286,3.274,4.536a17.4,17.4,0,0,0,15.764,0C202.225,193.218,203.3,191.634,203.368,190.027Z" transform="translate(34.694 36.368)" fill="#73b4c9"/>
      <path id="Path_47" data-name="Path 47" d="M191.94,206.676a14.466,14.466,0,0,1-6.989-1.643c-1.512-.869-2.381-1.964-2.381-3V194.71l.583.357a19.169,19.169,0,0,0,17.562,0l.56-.345V202.2a4.167,4.167,0,0,1-2.381,2.786A14.454,14.454,0,0,1,191.94,206.676Z" transform="translate(34.978 37.292)" fill="#fff"/>
      <path id="Path_48" data-name="Path 48" d="M195.908,198.747a13.4,13.4,0,0,1-8.977-.06,1.286,1.286,0,0,0-1.619,1.369,1.465,1.465,0,0,0,.822,1.393,14.538,14.538,0,0,0,10.513.083,1.464,1.464,0,0,0,.881-1.393C197.515,199.14,196.705,198.461,195.908,198.747Z" transform="translate(35.499 38.042)" fill="#73b4c9"/>
      <rect id="Rectangle_27" data-name="Rectangle 27" width="5.358" height="130.719" transform="translate(384.605 138.431)" fill="#e88235"/>
      <path id="Path_49" data-name="Path 49" d="M323.656,225.072a1.191,1.191,0,0,0,0,2.191,4.191,4.191,0,0,0,3.786,0,1.191,1.191,0,0,0,0-2.191,4.191,4.191,0,0,0-3.786,0Z" transform="translate(61.735 42.994)" fill="#e88235"/>
      <path id="Path_50" data-name="Path 50" d="M323.656,115.272a1.191,1.191,0,0,0,0,2.191,4.191,4.191,0,0,0,3.786,0,1.191,1.191,0,0,0,0-2.191A4.191,4.191,0,0,0,323.656,115.272Z" transform="translate(61.735 22.063)" fill="#9d9d9c"/>
      <rect id="Rectangle_28" data-name="Rectangle 28" width="5.358" height="130.719" transform="translate(225.204 161.684)" fill="#e88235"/>
      <path id="Path_51" data-name="Path 51" d="M189.776,244.592a1.191,1.191,0,0,0,0,2.191,4.191,4.191,0,0,0,3.786,0,1.191,1.191,0,0,0,0-2.191A4.191,4.191,0,0,0,189.776,244.592Z" transform="translate(36.214 46.715)" fill="#e88235"/>
      <path id="Path_52" data-name="Path 52" d="M189.776,134.8a1.191,1.191,0,0,0,0,2.191,4.191,4.191,0,0,0,3.786,0,1.191,1.191,0,0,0,0-2.191A4.191,4.191,0,0,0,189.776,134.8Z" transform="translate(36.214 25.786)" fill="#9d9d9c"/>
      <rect id="Rectangle_29" data-name="Rectangle 29" width="5.358" height="180.57" transform="translate(281.449 28.417)" fill="#e88235"/>
      <path id="Path_53" data-name="Path 53" d="M237.016,174.542a1.191,1.191,0,0,0,0,2.191,4.191,4.191,0,0,0,3.786,0,1.191,1.191,0,0,0,0-2.191A4.191,4.191,0,0,0,237.016,174.542Z" transform="translate(45.219 33.362)" fill="#2d2856"/>
      <path id="Path_54" data-name="Path 54" d="M237.016,22.882a1.191,1.191,0,0,0,0,2.191,4.191,4.191,0,0,0,3.786,0,1.191,1.191,0,0,0,0-2.191A4.191,4.191,0,0,0,237.016,22.882Z" transform="translate(45.219 4.451)" fill="#9d9d9c"/>
      <g id="Group_6" data-name="Group 6" transform="translate(190.985 23.842)">
        <path id="Path_55" data-name="Path 55" d="M374.033,83.331l-.119,42.648c0-15.609-10.263-31.242-30.885-43.148-40.993-23.67-107.24-23.67-147.971,0-20.241,11.763-30.361,27.146-30.409,42.553l.119-42.648c0-15.407,10.168-30.8,30.409-42.553,40.731-23.67,106.978-23.67,147.971,0C363.782,52.088,374.081,67.721,374.033,83.331Z" transform="translate(-159.423 -19.391)" fill="#e88235"/>
        <path id="Path_56" data-name="Path 56" d="M380.1,73.689l-.119,42.648c0,16.181-10.716,32.337-31.921,44.684-42.767,24.848-112.324,24.848-155.365,0-21.658-12.5-32.48-28.92-32.433-45.3l.119-42.648c0,16.395,10.716,32.8,32.433,45.3,43.041,24.848,112.6,24.848,155.365,0C369.417,106.027,380.05,89.87,380.1,73.689Z" transform="translate(-160.26 -9.738)" fill="#ff4555"/>
        <path id="Path_57" data-name="Path 57" d="M347.645,38.514c43.041,24.848,43.267,65.139.512,89.987s-112.324,24.848-155.365,0-43.267-65.139-.512-89.987S304.6,13.665,347.645,38.514ZM196.436,126.37c40.993,23.67,107.24,23.67,147.971,0s40.481-62.043-.488-85.725-107.24-23.67-147.971,0S155.466,102.688,196.436,126.37Z" transform="translate(-160.24 -19.877)" fill="#dce1cb"/>
      </g>
      <g id="Group_7" data-name="Group 7" transform="translate(240.682 178.376)" clip-path="url(#clip-path)">
        <path id="Path_58" data-name="Path 58" d="M225.75,204.606l-3.905-2.6a17.859,17.859,0,0,0-1.25-5.786,12,12,0,0,1-.976-3.691c-.286-1.584-1.572-1.845-1.643-.167l.357,3.655a1.929,1.929,0,0,1-.869,1.191,5.345,5.345,0,0,1-2.381-1.191L212.9,193.4l-1.512-2.107c-.643-.9-1.691-.417-1.191.845l1.322,2.381,2.155,2.6-1.929-.893-2.322-2.286c-.75-.833-1.667-.25-.953.9l2.453,2.8,2.3,1.619-2.381-1.048-1.762-1.1c-1.191-.607-1.464.4-.417,1.191l2.31,1.846c-1-.536-1.191.607.214,1.5l3.3,2.131,2.215,1.369,2.643.75,7.525,2.953Z" transform="translate(-200.854 -141.824)" fill="#ffb991"/>
        <path id="Path_59" data-name="Path 59" d="M218.29,208.318a31.8,31.8,0,0,0,6.06,2.941c4.072,1.643,11.549,5.12,12.132,5.286a4.036,4.036,0,0,0,4.56-1.774c1.965-5.346,8.787-18.788,8.739-19.229,0-.107-3.81-11.573-3.81-11.573-2.119,3.822-10.43,22.062-10.43,22.062L220.6,203.425h-.3a5.12,5.12,0,0,1-2.012,4.893Z" transform="translate(-198.895 -143.132)" fill="#fff"/>
        <path id="Path_60" data-name="Path 60" d="M253.721,171.113c-6.489.7-7.7,7.025-10.1,10.716C234.051,175.983,240.743,164.434,253.721,171.113Z" transform="translate(-194.927 -145.967)"/>
        <path id="Path_61" data-name="Path 61" d="M260.724,296.6a20.515,20.515,0,0,1-5.786,7.918c-3.179,2.572-6.12,4.131-8.632,3.8-2.381-.929-2.3-2.953-1.345-5.739,1.381-2.869,4.441-5.548,7.846-7.858,0,0,3.739-3.215,3.739-3.358S260.724,296.6,260.724,296.6Z" transform="translate(-193.93 -122.661)" fill="#0b1017"/>
        <path id="Path_62" data-name="Path 62" d="M243.31,268.21c2.607,7.668,7.394,17.609,12.8,28.182,0,0-6.644,5.786-3.917,7.882,4.048,3.108,9.239-6.667,9.239-6.667l-7.7-26.884Z" transform="translate(-194.125 -127.073)" fill="#e89768"/>
        <path id="Path_63" data-name="Path 63" d="M264.027,300l.143.393c1.191,0,2.643,3.917,2.119,6.894-1.667,4.429,0,7.894-.619,12.883-.417,3.084-1.464,5.37-3.905,6.87-4.06,2.381-7.06,2.869-7.537-.56-.452-2.381,0-4.632,1.072-8.251l1.941-9.525Z" transform="translate(-192.077 -121.013)" fill="#0b1017"/>
        <path id="Path_64" data-name="Path 64" d="M259.294,327.034c5.548.679,6.453-6.12,6.5-12.168,0-1.81,0-3.572-.083-5-4.929-12.371,3.762-23.479-2.179-34.23l.762-4.405,2.024-11.775-14.288-1.714-2.548,13.1-.893,7.775c1.572,10.394,8.525,22.062,9.966,33.147C258.865,316.843,255.984,326.63,259.294,327.034Z" transform="translate(-193.119 -129.069)" fill="#ffb991"/>
        <path id="Path_65" data-name="Path 65" d="M256.3,275.392c6.6,5.239.75,27.182,8.025,37.314,0-1.81,0-3.572-.083-5-4.929-12.371,3.762-23.479-2.179-34.23l.762-4.405C259.943,271.808,256.3,275.392,256.3,275.392Z" transform="translate(-191.649 -126.909)" fill="#ffb991"/>
        <path id="Path_66" data-name="Path 66" d="M239.675,243.811c-.441,15.252,3.965,17.347,3.572,27.98a9.62,9.62,0,0,0,.274,2.619c.81,3.572,3.369,7.489,6.489,8.87a6.076,6.076,0,0,0,.952.333,26.982,26.982,0,0,0,8.823-.1,8.715,8.715,0,0,0,6.56-5.286c-.059-11.287,8.465-19.264,9.406-34.23.4-6.37-1.119-12.406-5.179-16.835l-5-.083-24.836-.393Z" transform="translate(-194.824 -134.988)" fill="#e88235"/>
        <path id="Path_67" data-name="Path 67" d="M243.362,220.94c0,.488.083.964.1,1.441a32.147,32.147,0,0,1-1.964,12.871c.607,3.691,2.655,6.441,7.513,7.334a41.538,41.538,0,0,0,5.62.667c7.965.369,14.43-1.929,17.859-6.394-3.8-3.929-3.739-9.882-1.322-15.371a31.756,31.756,0,0,0,3.834-9.93,50.111,50.111,0,0,0,.75-14.073c-5.036-5.1-10.275-9.358-16.193-10.656l-13.168-4.989c-3.917.572-7.06,7.632-6.013,12.918-.512,8.156-4.536,11.573-4.643,16.669-.083,4.084,2.631,6.739,7.394,7.144.083.548.143,1.083.191,1.607Z" transform="translate(-195.57 -143.538)" fill="#60c1d2"/>
        <path id="Path_68" data-name="Path 68" d="M257.329,283.209h.31a8.691,8.691,0,0,0,6.548-5.286c0-11.287,8.477-19.264,9.418-34.219.369-5.775-.869-11.287-4.131-15.55a.43.43,0,0,1,.1-.155c-3.417,4.465-9.882,6.763-17.859,6.394-.238.845-.512,1.715-.81,2.619a35.539,35.539,0,0,0,8.334-2.048C271.522,245.121,264.366,271.672,257.329,283.209Z" transform="translate(-192.678 -134.738)" fill="#e88235" opacity="0.5"/>
        <path id="Path_69" data-name="Path 69" d="M241.92,214.472c.083.548.143,1.083.191,1.607v.81c0,.488.083.964.1,1.441,12.168,5.2,13.7,11.68,11.168,20.872,7.965.369,14.43-1.929,17.859-6.394-3.8-3.929-3.739-9.882-1.322-15.371a31.755,31.755,0,0,0,3.834-9.93l-8.132-4.417c-1.381,20.931-17.859,19.717-17.157,7.632C246.933,212.675,243.873,214.58,241.92,214.472Z" transform="translate(-194.39 -139.487)" fill="#60c1d2"/>
        <path id="Path_70" data-name="Path 70" d="M248.634,183.364l-3.25,5.382,2.334,1.631L244.8,192.27l2.917,16.919,3.072-6.882,2.524-20.467Z" transform="translate(-193.841 -143.538)" fill="#d6eeeb"/>
        <path id="Path_71" data-name="Path 71" d="M263.069,189.493a20.752,20.752,0,0,1-2.679-9.323l-10.454.845.119,7.465c-1.7,4.762-1.393,8.061-1.655,16.538C252.031,200.518,262.473,193.386,263.069,189.493Z" transform="translate(-193.155 -143.856)" fill="#ffb991"/>
        <path id="Path_72" data-name="Path 72" d="M256.012,181.85c-.738,6.167-3.1,13.787-6.548,13.668-2.31-.071-1.762-7.6-2.584-12.109Z" transform="translate(-193.445 -143.536)" fill="#ffb991" opacity="0.5"/>
        <path id="Path_73" data-name="Path 73" d="M261.8,185.093c5.846-9.835,2.857-18.4-5.132-20.241-8.739-2.036-14.6,4.262-14.6,11.906-.262,8.084,1.786,13.811,4.846,14.288,5.048.822,8.727-1.429,10.192-4.762Z" transform="translate(-194.365 -146.85)" fill="#ffb991"/>
        <path id="Path_74" data-name="Path 74" d="M260.25,188.658c-1.619-4.643-.9-2.655-1.107-4l-.381-2.548-2.31.988c-4.762.25-5.548-8.013-14.371-6.953-.774-7.87,5.108-12.216,12.323-12.144C269.727,165.286,270.43,180.074,260.25,188.658Z" transform="translate(-194.373 -146.938)" fill="#0b1017"/>
        <path id="Path_75" data-name="Path 75" d="M254.163,182.947c-.441-1.191-.56-1.083-.369-1.631.536-1.572,1.512-2.762,2.465-2.5.631.167,1.345.3,1.619.893a2.763,2.763,0,0,1-.274,2.215,4.92,4.92,0,0,1-.81,1.429,1.667,1.667,0,0,1-1.464.583A1.583,1.583,0,0,1,254.163,182.947Z" transform="translate(-192.143 -144.121)" fill="#ffb991"/>
        <path id="Path_76" data-name="Path 76" d="M242.9,268.769c.81,3.572,3.369,7.489,6.489,8.87a15.022,15.022,0,0,1-.714-3.06c-.988-7.465,2.107-14.061.786-18.359a24.8,24.8,0,0,1-2.155,7.549C246.186,266.078,244.686,267.162,242.9,268.769Z" transform="translate(-194.203 -129.359)" fill="#e88235" opacity="0.5"/>
        <path id="Path_77" data-name="Path 77" d="M247.25,208.491,248.607,204l13.287-18.5,4.489,4.715-4.227,7.715-4.179-2.405,1.274,4.465Z" transform="translate(-193.374 -142.84)" fill="#fff"/>
      </g>
      <path id="Path_79" data-name="Path 79" d="M243.4,244.436a1.393,1.393,0,0,0,1.619-.214c1.274-1.333,2.619-2.381,4.334-1.8a3.179,3.179,0,0,1,.143,2.191v.191a33.006,33.006,0,0,1-3.036,6.763.738.738,0,0,0,.179.9,1.024,1.024,0,0,0,1.191,0c-.071.679.81.941,1.4.322l.881-.964c.1.8,1.036.572,1.333,0l1.679-2.072a15.668,15.668,0,0,0,2.893-3.929l.333-.655a23.313,23.313,0,0,0,1.191-7.394c-.572-2.048-2.381-2.381-4.763-1.191l-2.834,1.464c-2.643,1.3-3.977,3.143-6.81,5.441C242.815,243.781,243.005,244.2,243.4,244.436Z" transform="translate(46.492 45.145)" fill="#ffb991"/>
      <path id="Path_80" data-name="Path 80" d="M246,250.967a1.024,1.024,0,0,0,1.191,0c-.071.679.81.941,1.4.321l.881-.964c.1.8,1.036.572,1.333,0l1.679-2.072a15.665,15.665,0,0,0,2.893-3.929,4.941,4.941,0,0,1-4.227-.583C249.941,246.6,247.738,250.443,246,250.967Z" transform="translate(47.069 46.639)" fill="#ffb991"/>
      <path id="Path_81" data-name="Path 81" d="M243.34,243.542a1.381,1.381,0,0,0,1.619-.214c1.274-1.334,2.619-2.381,4.334-1.8a3.179,3.179,0,0,1,.143,2.191l.7-3.012C247.007,239.971,244.816,242.935,243.34,243.542Z" transform="translate(46.562 46.038)" fill="#ffb991"/>
      <path id="Path_82" data-name="Path 82" d="M272.952,195.248c3.834,9.1-1.465,18.193-2.56,29.3-3.572,9.692-8.763,17.193-14.288,24.182-.441-1.917-2.6-4.62-5.775-3.75l10.716-21.967c.143-6.8,1.06-11.478,1.429-20.9,0,0,.226-5.632,3.953-7.56C270.8,192.283,272.952,195.248,272.952,195.248Z" transform="translate(47.895 37.1)" fill="#fff"/>
      <path id="Path_83" data-name="Path 83" d="M380.1,73.689l-.119,42.648c0,16.181-10.716,32.337-31.921,44.684-42.767,24.848-112.324,24.848-155.365,0-21.658-12.5-32.48-28.92-32.433-45.3l.119-42.648c0,16.395,10.716,32.8,32.433,45.3,43.041,24.848,112.6,24.848,155.365,0C369.417,106.027,380.05,89.87,380.1,73.689Z" transform="translate(30.725 14.104)" fill="#f29854"/>
      <path id="Path_84" data-name="Path 84" d="M166.37,105.7c5.382,8.18,13.752,15.859,25.158,22.443,42.982,24.813,112.383,24.848,155.162.107v14.716c-42.779,24.741-112.193,24.705-155.162-.107-11.394-6.584-19.764-14.288-25.158-22.431Z" transform="translate(31.89 20.325)" fill="#fff"/>
      <path id="Path_85" data-name="Path 85" d="M192.76,286.166c40.326,22.062,103.751,21.729,143.089-1.036v13.764c-39.291,22.753-102.763,23.086-143.089,1.036Z" transform="translate(36.92 54.529)" fill="#fff"/>
      <ellipse id="Ellipse_13" data-name="Ellipse 13" cx="4.036" cy="11.871" rx="4.036" ry="11.871" transform="translate(208.19 322.787)" fill="#fff"/>
      <path id="Path_86" data-name="Path 86" d="M171.662,197.5c-5.394-.452-8.334,3.286-10.227,8.62-.619,3.262.726,7.93,2.381,10.716l6.632,2.905c2.25.536,4.251,1.464,5.858,1.083,4.12-.988,4.072-8.18,4.143-13.918C180,202.008,178.091,198.1,171.662,197.5Z" transform="translate(30.92 37.816)" fill="#ffb991"/>
      <path id="Path_87" data-name="Path 87" d="M174.6,226.516l1.774-10.013L165,212.49l-3.536,9.382Z" transform="translate(30.954 40.682)" fill="#ffb991"/>
      <path id="Path_88" data-name="Path 88" d="M175.356,336.19l-2.6,4.917a7.144,7.144,0,0,0-.536,6.691c1.941,2.6,5.81,2.167,9.942,1.322,5.274-1.584,7.977-2.834,11.228-3.81,4.893-1.655,4.024-5.6-1.191-5.953l-8.584-.583-2.857-.321-.25-2.822Z" transform="translate(32.893 64.155)" fill="#291933"/>
      <path id="Path_89" data-name="Path 89" d="M149.793,326.028l-2.822,1.822a8.108,8.108,0,0,0-.548,7.144c2.2,1.453,4.536,1.488,8.334-.667,4.763-3.965,6.727-3.81,8.632-6.525,2.215-3.429-1.048-4.893-3.75-4.512l-5.417.75Z" transform="translate(27.977 61.792)" fill="#291933"/>
      <path id="Path_90" data-name="Path 90" d="M176.137,257.289l-2.988,20.467c-.7,2.381-1.464,4.763-2.238,7.144a129.261,129.261,0,0,1-6.929,17.586,20.125,20.125,0,0,1-1.441,2.381l-2.155,4.143c-.214,1.679-.488,3.358-.8,5-1.655,8.62-4.453,16.669-5.5,23.813l1.191-.167c3.3.679,3.81,1.7,2.036,3.572-2,1.357-3.572,2.619-5.6,2.941-2.869.5-5.084-.155-4.977-2.155.512-13.1-.441-25.134,1.905-34.29a24.193,24.193,0,0,1,3.072-7.31l1.536-3.834c-.083-1.072-.143-2.143-.191-3.238a154.017,154.017,0,0,1,.643-21.11,36.385,36.385,0,0,1,5.632-21.431l5.81,2.155,5.048,1.988Z" transform="translate(28.147 47.984)" fill="#ffb991"/>
      <path id="Path_91" data-name="Path 91" d="M188.164,357.747l-8.192,1.822c-2.655.5-5.143-.964-5.632-2.655,2.191-16.478-4.358-26.527,0-40.779V310.5l-1.655-8.334L169.518,286.1l-1.738-1.929-4.56-5.036,2.988-24.86h16.74l3.155,18.9a83.641,83.641,0,0,1,2.822,27.218,60.717,60.717,0,0,1-1.334,8.823l-.714,6.56-.274,2.548a262.186,262.186,0,0,0-3.155,31.373,4.441,4.441,0,0,0,3.727,4.608C191.283,354.89,192.545,356.342,188.164,357.747Z" transform="translate(31.289 48.646)" fill="#ffb991"/>
      <path id="Path_92" data-name="Path 92" d="M189.228,237.721a8.1,8.1,0,0,1-5.656,7.584,9.1,9.1,0,0,1-2.941.488,8.954,8.954,0,0,1-4.762-1.333,7.941,7.941,0,0,1-3.87-6.727,8.334,8.334,0,0,1,8.6-8.072,8.953,8.953,0,0,1,5.215,1.655,8.334,8.334,0,0,1,2.238,2.381A7.668,7.668,0,0,1,189.228,237.721Z" transform="translate(32.963 43.954)" fill="#a263c7"/>
      <path id="Path_93" data-name="Path 93" d="M191.4,315.772c-4.977,3.762-34.314,5.751-42.1-9.835l2.322-26.194c1.274-9.68,1.191-13.025,6.2-20.872.333-.536.7-1.083,1.083-1.667,2.572-7.489-3.119-13.549-5.215-24.574a40.669,40.669,0,0,1-.583-4.274,11.263,11.263,0,0,1,1.548-7.561,7.7,7.7,0,0,1,7.334-3.489,54.649,54.649,0,0,1,21.86,7.751l2.453,1.584,3.87,7,.417,3.191.476,3.739a70.244,70.244,0,0,0-3.167,7.06,26.611,26.611,0,0,0-1.8,13.692c1.191,3.572,2.191,7.144,3.072,10.716C192.817,286.638,193.9,300.794,191.4,315.772Z" transform="translate(28.636 41.591)" fill="#ff4555"/>
      <path id="Path_94" data-name="Path 94" d="M163.744,217.767a14.478,14.478,0,0,1-3.227-10.358c.619-5.251,3.572-10.716,9.775-11.025,9.037-.476,13.395,6.584,10.335,14.788-2.905,2.905-5,5.953-6.775,7.68C169.293,222.268,166.066,221.434,163.744,217.767Z" transform="translate(30.765 37.607)" fill="#0b1017"/>
      <path id="Path_95" data-name="Path 95" d="M165.117,212.48s-4.763,4.977-5.8,9.668c-2.012,8.787,4.941,19.6,4.941,19.6s5.536-11.978,4.274-17.109c-1.191-4.763-.226-12.156-.226-12.156Z" transform="translate(30.476 40.68)" fill="#0b1017"/>
      <path id="Path_96" data-name="Path 96" d="M175.662,209.036c-1.4.833-1.191,5.263-1.191,5.263l1.655,1.191.833-4.929S177.27,208.071,175.662,209.036Z" transform="translate(33.432 39.981)" fill="#ffb991"/>
      <path id="Path_97" data-name="Path 97" d="M187.2,245.2a26.611,26.611,0,0,0-1.8,13.692c1.191,3.572,2.905,7.144,3.786,10.716-9.239-9.418-24.015-8.144-32.075-13.156.333-.536.7-1.083,1.083-1.667,2.572-7.489-3.119-13.549-5.215-24.575,5.6,13.835,18.55,20.241,26.539,14.18a15.585,15.585,0,0,0,5.132-7.656l5.227-2.3,1.822-.8a7.668,7.668,0,0,1,1.191,4.012A8.1,8.1,0,0,1,187.2,245.2Z" transform="translate(29.337 44.059)" fill="#c1272d"/>
      <path id="Path_98" data-name="Path 98" d="M188.812,230.976l-6.537,1.25-1.036-2.917,2.2-2.929,3.6,1.024Z" transform="translate(34.724 43.329)" fill="#ffb991"/>
      <path id="Path_99" data-name="Path 99" d="M179.29,241.723l12.621-20.693,13.252,6.406-12.621,20.693Z" transform="translate(34.353 42.309)" fill="#291933"/>
      <path id="Path_100" data-name="Path 100" d="M192.9,245.535l-12.013-5.81,10.978-17.955,12.013,5.822Z" transform="translate(34.658 42.451)" fill="#fff"/>
      <path id="Path_101" data-name="Path 101" d="M191.611,226l-2.381-.452a5.381,5.381,0,0,1-3.8,3.072l-1.25.429a8.906,8.906,0,0,0-1.072-2c.214-1.643,1.191-3.155,2.107-3.429l3.655-.655,4.453,1.607C193.433,225.532,193.052,225.984,191.611,226Z" transform="translate(35.081 42.677)" fill="#ffb991"/>
      <path id="Path_102" data-name="Path 102" d="M191.58,244.3a.762.762,0,0,1-.857-.917l3.905-18.228a.762.762,0,1,1,1.488.321l-3.87,18.24A.762.762,0,0,1,191.58,244.3Z" transform="translate(36.529 42.974)" fill="#291933"/>
      <path id="Path_103" data-name="Path 103" d="M200.616,234.509c.1.7-.369,1.191-.357,1.715a3.8,3.8,0,0,0,.083.893,5.387,5.387,0,0,1,0,.6c0,1.191-2.7,2.917-3.572,3.441l-3.465,1.643-4.108,3.655-.833-1.393-1.965-3.012,3.072-3.739a11.18,11.18,0,0,1,.274-5.215l1.6-1.929,2.941-1.441-.3,1.274a27.39,27.39,0,0,1,2.381-1.441c.56-.286,1.56-.464,1.988,0,.2.238.107.774.286,1.048s.929.631,1.083.964-.083,1.131,0,1.453S200.509,233.711,200.616,234.509Z" transform="translate(35.708 43.88)" fill="#ffb991"/>
      <path id="Path_104" data-name="Path 104" d="M193.44,229.95l-3,2.524,2.786-1.643Z" transform="translate(36.478 44.01)" fill="#ffb991"/>
      <path id="Path_105" data-name="Path 105" d="M200.028,235.86a5.418,5.418,0,0,1,0,.6c0,1.191-2.7,2.917-3.572,3.441l-3.465,1.643-4.108,3.655-.833-1.393a16.335,16.335,0,0,0,4.3-4.322C195.408,239.456,198.944,238.217,200.028,235.86Z" transform="translate(36.023 45.136)" fill="#ffb991"/>
      <path id="Path_106" data-name="Path 106" d="M181.461,225.2c4.084,1.976,4.608,5.06,4.608,12.109l.381,7.251,5.251-5.477c3.369-.214,4.2.369,3.87,4.536-1.929,5.822-5.763,14.216-9.6,17.788-2.381,2.25-6.382-.3-7.953-6.418l-2.667-15.776C173.853,230.46,175.043,223.6,181.461,225.2Z" transform="translate(33.491 43.06)" fill="#ffb991"/>
      <path id="Path_107" data-name="Path 107" d="M155.86,200.777v-6.918a.584.584,0,0,0-.262-.464l-11.466-6.62a.167.167,0,0,0-.262.155v6.918a.583.583,0,0,0,.262.464l11.466,6.62C155.741,201.015,155.86,200.943,155.86,200.777Z" transform="translate(27.601 35.774)" fill="#4a4a49"/>
      <path id="Path_108" data-name="Path 108" d="M143.5,187.058l.512-.3,11.847,14.18-.512.3L143.5,187.058Z" transform="translate(27.53 35.777)" fill="#4a4a49"/>
      <path id="Path_109" data-name="Path 109" d="M155.43,201.03v-6.882a.584.584,0,0,0-.262-.464L143.7,187a.167.167,0,0,0-.262.155v6.989a.583.583,0,0,0,.262.464l11.466,6.62C155.311,201.292,155.43,201.2,155.43,201.03Z" transform="translate(27.519 35.818)" fill="#1d1d1b"/>
      <path id="Path_110" data-name="Path 110" d="M154.561,193.643,144.25,187.69v6.763l10.311,5.953Z" transform="translate(27.673 35.954)" fill="#50a4d9"/>
      <path id="Path_111" data-name="Path 111" d="M144.2,191.5v-1.7a.238.238,0,0,0-.107-.191l-.381-.226c-.06,0-.107,0-.107.06v1.7a.238.238,0,0,0,.107.19l.381.226C144.148,191.595,144.2,191.571,144.2,191.5Z" transform="translate(27.549 36.276)" fill="#fff"/>
      <path id="Path_112" data-name="Path 112" d="M144.121,189.751a2.132,2.132,0,0,0-.441-.321s0,1.738,0,1.738a2.133,2.133,0,0,0,.441.321S144.121,189.751,144.121,189.751Z" transform="translate(27.564 36.286)" fill="#4a4a49"/>
      <path id="Path_113" data-name="Path 113" d="M153.377,195.49v-.107l-.357-.2v.107Z" transform="translate(29.345 37.382)" fill="#273340"/>
      <path id="Path_114" data-name="Path 114" d="M153.387,195.68v-.107l-.357-.2v.107Z" transform="translate(29.347 37.418)" fill="#273340"/>
      <path id="Path_115" data-name="Path 115" d="M153.377,195.87v-.107l-.357-.2v.107Z" transform="translate(29.345 37.454)" fill="#273340"/>
      <path id="Path_116" data-name="Path 116" d="M153.387,196.05v-.107l-.357-.2v.107Z" transform="translate(29.347 37.489)" fill="#273340"/>
      <path id="Path_117" data-name="Path 117" d="M153.387,196.24v-.107l-.357-.2v.107Z" transform="translate(29.347 37.525)" fill="#273340"/>
      <path id="Path_118" data-name="Path 118" d="M153.377,195.49v-.107l-.357-.2v.107Z" transform="translate(29.345 37.382)" opacity="0.5"/>
      <path id="Path_119" data-name="Path 119" d="M153.387,195.68v-.107l-.357-.2v.107Z" transform="translate(29.347 37.418)" opacity="0.5"/>
      <path id="Path_120" data-name="Path 120" d="M153.377,195.87v-.107l-.357-.2v.107Z" transform="translate(29.345 37.454)" opacity="0.5"/>
      <path id="Path_121" data-name="Path 121" d="M153.387,196.05v-.107l-.357-.2v.107Z" transform="translate(29.347 37.489)" opacity="0.5"/>
      <path id="Path_122" data-name="Path 122" d="M153.387,196.24v-.107l-.357-.2v.107Z" transform="translate(29.347 37.525)" opacity="0.5"/>
      <path id="Path_123" data-name="Path 123" d="M153.2,193.734c.071,0,.119,0,.119-.071a.262.262,0,0,0-.119-.2c-.071,0-.119,0-.119.071A.262.262,0,0,0,153.2,193.734Z" transform="translate(29.356 37.054)" fill="#fff" opacity="0.5"/>
      <path id="Path_124" data-name="Path 124" d="M153.2,194.574c.071,0,.119,0,.119-.071a.262.262,0,0,0-.119-.2c-.071,0-.119,0-.119.071A.262.262,0,0,0,153.2,194.574Z" transform="translate(29.356 37.214)" opacity="0.5"/>
      <path id="Path_125" data-name="Path 125" d="M90.3,248.09l.333,3.965.774,2.381,1.726,3.119c.512.869,1.381.7,1.369-.107l.833,1.476c.762,1.191,1.857.179,1.262-1.024l-1.262-3.084,2.107,3.858c.833,1.191,1.929.4,1.453-1.119l-1.691-4.3,1.869,3.37c.572.762,1.834.286,1.488-1.119l-1.893-5.584a3.572,3.572,0,0,1,.191-2.119c.369-.738,3.227.8,3.227.8l2.619,1.5c.952.143,1.369-.1,1.191-.738l-1.976-2.06-2.215-1.941-.976-.857a12.465,12.465,0,0,0-4.322-2.012l-.119-.4-.238-.81-2.155.333-3.2.488.155,2.453-.19,1.191Z" transform="translate(17.389 46.17)" fill="#fcaf75"/>
      <path id="Path_126" data-name="Path 126" d="M98.817,246.532l-4.346-1.012-2.381,3.929,2.024,7.144c-.071-1.893-.155-4.155,1.083-4.6l2.167-.31L95.59,250.5l.274-1.762,3.762-.6Z" transform="translate(17.73 46.978)" fill="#fcaf75" opacity="0.3"/>
      <path id="Path_127" data-name="Path 127" d="M100.495,202.539l-1.3,15.478L98.137,230.9c-.941,7.477-2.024,13.478-1.345,17.4a2.738,2.738,0,0,1-.083,1.083,4.334,4.334,0,0,1-2.381,2.381,13.9,13.9,0,0,1-3.274,1.191c-1.857-7.68-3.31-15.073-2.679-21.05l1.191-15.216C90.005,208.028,92.065,201.432,100.495,202.539Z" transform="translate(16.993 38.762)" fill="#66a100"/>
      <path id="Path_128" data-name="Path 128" d="M101.143,245.144l-7.763-.893a4.334,4.334,0,0,0,2.381-2.381l.131.4a12.5,12.5,0,0,1,4.322,2Z" transform="translate(17.976 46.282)" fill="#fcaf75" opacity="0.3"/>
      <path id="Path_129" data-name="Path 129" d="M97.518,228.789c-.941,7.477-2.024,13.478-1.345,17.4a2.739,2.739,0,0,1-.083,1.083,4.334,4.334,0,0,1-2.381,2.381c0-.964,0-1.9,0-2.857-.488-14.43-4.846-26.527.107-33.171l4.762,2.3Z" transform="translate(17.612 40.897)" fill="#66a100" opacity="0.5"/>
      <path id="Path_130" data-name="Path 130" d="M97.235,313.872a15.954,15.954,0,0,0,0,6.584c1.191,2.036,2.81,2.81,5.477,2.381,1.822-.333,3.8-2.227,5.477-4.453,3.87-1.429,7.477-2.488,9.168-5.453,1.107-1.881,1.191-4.2-1.286-5.37a13.251,13.251,0,0,0-9.668,1.917l-1.369-4.048-7.263,1.3Z" transform="translate(18.645 58.398)"/>
      <path id="Path_131" data-name="Path 131" d="M114.349,263.741c-.881,8.334-2.155,17.978-4.453,23.979l-1.441,4.524v26.908c.964,5.382-5.548,10.025-11.418,6.846-2.488-13.264-3.262-26.789,0-37.588l1.191-5.2c-1.441-8.989-1.417-21.753-1.191-33.337Z" transform="translate(18.26 47.807)" fill="#1d1d1b"/>
      <path id="Path_132" data-name="Path 132" d="M116.762,323.45a16.669,16.669,0,0,0-.333,6.513c.631,2.119,2.262,3.191,5.822,2.81a16.467,16.467,0,0,0,6.918-2.667c6.584-1.6,12.835-3.774,12.835-8.834-.7-2.738-3.369-4.239-6.81-2.953s-6.334,1.512-9.394.143l-.822-3.631-7.834,1.393Z" transform="translate(22.336 60.19)"/>
      <path id="Path_133" data-name="Path 133" d="M96.69,253.392c0,6.31,8.334,11.632,14.478,13.966.548,10.144,3.167,20.038,5.7,29.063-3.167,10.085.191,27.384,2.81,43.458a7.144,7.144,0,0,0,5.679,1.715c4.155-.357,8.334-3.405,7.5-7.537-1.893-4.762-1.536-20.586-2.286-34.873l.75-7.144s1.107-10.513.488-16.871c-.321-3.227-.679-6.584-1.06-9.846-1.262-10.811-2.643-20.574-2.643-20.574-7.5,1.56-20.967,2.453-27.825-7.418C98.512,242.152,96.69,245.581,96.69,253.392Z" transform="translate(18.607 45.417)" fill="#3c3c3b"/>
      <path id="Path_134" data-name="Path 134" d="M116.38,245.28c4.655,12.549,6.227,26.444,4.953,41.577l.274,53.519c4.155-.357,8.334-3.405,7.5-7.537-1.893-4.762-1.536-20.586-2.286-34.873l.75-7.144s1.107-10.513.488-16.871c-.321-3.227-3.322-27.158-3.7-30.42Z" transform="translate(22.36 46.599)" fill="#3f668a" opacity="0.3"/>
      <path id="Path_135" data-name="Path 135" d="M93.17,216.359c.869,7.787,3.417,16.883,7.787,27.6a21.336,21.336,0,0,0,19.931,9.132,33.612,33.612,0,0,0,7.894-1.643c1.107-7.144,2.191-14.288,2.691-20.562.464-6.132.381-11.561-.774-15.633C119.9,207.87,111.244,205,99.552,202.56Z" transform="translate(17.936 38.789)" fill="#66a100"/>
      <path id="Path_136" data-name="Path 136" d="M119.013,203.086l-1.464,8.334c-5.048,2.238-13.478-.345-13.1-4.822l2.762-6.8Z" transform="translate(20.084 38.262)" fill="#ffae80"/>
      <path id="Path_137" data-name="Path 137" d="M113.826,185.215c5.155,1.191,8.918,3.858,9.346,9.763a31.111,31.111,0,0,1-.417,8.834A5.013,5.013,0,0,1,118.494,207l-11.573-1.548c-3.572-2.381-5.751-7.358-4.763-12.835C103.206,187.346,107.218,184.881,113.826,185.215Z" transform="translate(19.604 35.476)" fill="#ffae80"/>
      <path id="Path_138" data-name="Path 138" d="M151.115,208.657l4.37-2.929,1.822-1.655a15.038,15.038,0,0,0,.131-8.334l-1.881-2.56V194.6l-.643,1.334-3.655,2.012-.643-3.929c-.524-2.381-1.845-2.524-1.845-.762.417,1.941,0,3.322,0,5.727l-1.476,3.727-1.834,4.072,5.346,3.905Z" transform="translate(27.904 36.787)" fill="#ffc69e"/>
      <path id="Path_139" data-name="Path 139" d="M125.8,191.514c-4.405-1.024-4.024,5.513-6.679,6.989l-1.334,2.381-1.024,2.3-.262,1.643a2.31,2.31,0,0,1-1.512,1.834c-2.072.726-6.179,1.607-9.12-1.31-2.536-2.524-4.524-5.084-4.215-10.847s5.667-10.811,10.847-10.561C121.848,184.406,124.444,186.644,125.8,191.514Z" transform="translate(19.547 35.238)" fill="#1d1d1b"/>
      <path id="Path_140" data-name="Path 140" d="M114.687,197.75a1.726,1.726,0,0,0-1.56,1.381,3,3,0,0,0,2.381,3.762.548.548,0,0,0,.393,0,.607.607,0,0,0,.19-.512l.083-1.691a4.644,4.644,0,0,0-.143-1.786,1.584,1.584,0,0,0-1.345-1.155Z" transform="translate(21.719 37.872)" fill="#ffae80"/>
      <path id="Path_141" data-name="Path 141" d="M116.45,248.746a33.613,33.613,0,0,0,7.894-1.643c1.107-7.144,2.191-14.288,2.691-20.562l-6.215-1.191C121.867,234.815,121.867,243.567,116.45,248.746Z" transform="translate(22.374 43.133)" fill="#66a100" opacity="0.5"/>
      <path id="Path_142" data-name="Path 142" d="M151.993,203.16c-3.465,6.739-8.668,17.514-8.692,17.514a22.276,22.276,0,0,0-9-2.572c-2.31-1.738-7.584-4.334-10.358-4.763-13.668-2.786-10.406,14.895-2.8,16.228.714.25,1.441.488,2.155.726a59,59,0,0,0,23.932,2.822,39.694,39.694,0,0,0,6.965-13.752,72.732,72.732,0,0,0,2.81-12.787,3.834,3.834,0,0,0-5.013-3.417Z" transform="translate(22.014 38.867)" fill="#66a100"/>
      <path id="Path_143" data-name="Path 143" d="M121.93,227.765a59,59,0,0,0,23.9,2.727,39.7,39.7,0,0,0,6.965-13.752c-2.512,5.405-6.929,9.835-10.216,9.93C136.217,228.551,130.979,227.575,121.93,227.765Z" transform="translate(23.418 41.492)" fill="#66a100" opacity="0.5"/>
      <path id="Path_144" data-name="Path 144" d="M301.3,236.54v16.133c.131,1.655-.893,3.322-3.072,4.584a16.478,16.478,0,0,1-14.918,0c-2.06-1.191-3.084-2.75-3.084-4.31V236.54Z" transform="translate(53.594 45.266)" fill="#c6c6c6"/>
      <path id="Path_145" data-name="Path 145" d="M283.315,233.206c-4.12,2.381-4.12,6.239,0,8.608a16.49,16.49,0,0,0,14.919,0c4.12-2.381,4.12-6.239,0-8.608a16.49,16.49,0,0,0-14.919,0Z" transform="translate(53.594 44.29)" fill="#fff"/>
      <path id="Path_146" data-name="Path 146" d="M299.439,232.37v2.881c.107,1.393-.762,2.81-2.607,3.881a13.966,13.966,0,0,1-12.633,0,4.441,4.441,0,0,1-2.619-3.643v-3.108Z" transform="translate(53.852 44.471)" fill="#c6c6c6"/>
      <path id="Path_147" data-name="Path 147" d="M284.189,229.542c-3.489,2.012-3.489,5.274,0,7.3a13.966,13.966,0,0,0,12.632,0c3.489-2.012,3.489-5.274,0-7.3A13.954,13.954,0,0,0,284.189,229.542Z" transform="translate(53.85 43.644)" fill="#fff"/>
      <path id="Path_148" data-name="Path 148" d="M301.306,238.369v12.5a5.405,5.405,0,0,1-3.072,4.024,16.5,16.5,0,0,1-14.919,0c-2.06-1.191-3.1-2.75-3.1-4.31V238.25c0,1.548,1.036,3.108,3.1,4.286a16.455,16.455,0,0,0,14.919,0C300.2,241.381,301.246,239.881,301.306,238.369Z" transform="translate(53.593 45.592)" fill="#d44719"/>
      <path id="Path_149" data-name="Path 149" d="M290.5,254.111a13.681,13.681,0,0,1-6.608-1.56c-1.429-.821-2.25-1.857-2.25-2.834V242.8l.548.333a18.133,18.133,0,0,0,16.609,0l.536-.321v7.144a3.941,3.941,0,0,1-2.226,2.631,13.68,13.68,0,0,1-6.608,1.524Z" transform="translate(53.863 46.459)" fill="#fff"/>
      <path id="Path_150" data-name="Path 150" d="M294.247,246.609a12.668,12.668,0,0,1-8.489,0,1.191,1.191,0,0,0-1.536,1.3,1.381,1.381,0,0,0,.762,1.334,13.752,13.752,0,0,0,9.942.083,1.381,1.381,0,0,0,.833-1.322C295.771,246.979,295.009,246.348,294.247,246.609Z" transform="translate(54.353 47.174)" fill="#e94e1b"/>
      <path id="Path_151" data-name="Path 151" d="M254.374,242v16.133c.131,1.655-.893,3.322-3.072,4.584a16.49,16.49,0,0,1-14.919,0c-2.06-1.191-3.084-2.75-3.084-4.31V242Z" transform="translate(44.648 46.307)" fill="#c6c6c6"/>
      <path id="Path_152" data-name="Path 152" d="M236.335,238.636c-4.12,2.381-4.12,6.239,0,8.608a16.49,16.49,0,0,0,14.919,0c4.12-2.381,4.12-6.239,0-8.608a16.49,16.49,0,0,0-14.919,0Z" transform="translate(44.638 45.326)" fill="#fff"/>
      <path id="Path_153" data-name="Path 153" d="M252.459,237.79v2.881c.107,1.393-.762,2.81-2.607,3.881a13.966,13.966,0,0,1-12.633,0,4.441,4.441,0,0,1-2.619-3.643V237.8Z" transform="translate(44.896 45.504)" fill="#c6c6c6"/>
      <path id="Path_154" data-name="Path 154" d="M237.209,234.972c-3.489,2.012-3.489,5.274,0,7.3a13.966,13.966,0,0,0,12.633,0c3.489-2.012,3.489-5.274,0-7.3A13.954,13.954,0,0,0,237.209,234.972Z" transform="translate(44.895 44.679)" fill="#fff"/>
      <path id="Path_155" data-name="Path 155" d="M254.326,243.8v12.5a5.405,5.405,0,0,1-3.072,4.024,16.5,16.5,0,0,1-14.919,0c-2.06-1.191-3.1-2.75-3.1-4.31V243.67c0,1.548,1.036,3.108,3.1,4.286a16.455,16.455,0,0,0,14.919,0C253.195,246.813,254.266,245.254,254.326,243.8Z" transform="translate(44.637 46.625)" fill="#d44719"/>
      <path id="Path_156" data-name="Path 156" d="M243.518,259.543a13.681,13.681,0,0,1-6.608-1.56c-1.429-.822-2.25-1.857-2.25-2.834V248.22l.548.333a18.121,18.121,0,0,0,16.609,0l.536-.321v7.144a3.941,3.941,0,0,1-2.226,2.631A13.681,13.681,0,0,1,243.518,259.543Z" transform="translate(44.908 47.493)" fill="#fff"/>
      <path id="Path_157" data-name="Path 157" d="M247.267,252.009a12.668,12.668,0,0,1-8.489,0,1.191,1.191,0,0,0-1.536,1.3A1.381,1.381,0,0,0,238,254.64a13.752,13.752,0,0,0,9.942.083,1.381,1.381,0,0,0,.833-1.322C248.791,252.414,248.029,251.782,247.267,252.009Z" transform="translate(45.398 48.204)" fill="#e94e1b"/>
      <path id="Path_158" data-name="Path 158" d="M277.986,244.7v16.133c.131,1.655-.893,3.322-3.072,4.584a16.478,16.478,0,0,1-14.919,0c-2.06-1.191-3.1-2.75-3.1-4.31V244.7Z" transform="translate(49.147 46.822)" fill="#c6c6c6"/>
      <path id="Path_159" data-name="Path 159" d="M259.995,241.376c-4.12,2.381-4.12,6.239,0,8.608a16.49,16.49,0,0,0,14.919,0c4.12-2.381,4.12-6.239,0-8.608a16.49,16.49,0,0,0-14.919,0Z" transform="translate(49.148 45.848)" fill="#fff"/>
      <path id="Path_160" data-name="Path 160" d="M276.109,240.53v2.881c.107,1.393-.762,2.81-2.608,3.881a13.966,13.966,0,0,1-12.633,0,4.441,4.441,0,0,1-2.619-3.643v-3.108Z" transform="translate(49.404 46.027)" fill="#c6c6c6"/>
      <path id="Path_161" data-name="Path 161" d="M260.869,237.7c-3.489,2.012-3.489,5.274,0,7.3a13.966,13.966,0,0,0,12.632,0c3.489-2.012,3.489-5.274,0-7.3A13.954,13.954,0,0,0,260.869,237.7Z" transform="translate(49.405 45.199)" fill="#fff"/>
      <path id="Path_162" data-name="Path 162" d="M277.992,246.541v12.478a5.405,5.405,0,0,1-3.108,4.048,16.5,16.5,0,0,1-14.919,0c-2.06-1.191-3.1-2.75-3.1-4.31V246.41c0,1.548,1.036,3.108,3.1,4.286a16.454,16.454,0,0,0,14.918-.012C276.908,249.494,277.932,248.053,277.992,246.541Z" transform="translate(49.141 47.148)" fill="#d44719"/>
      <path id="Path_163" data-name="Path 163" d="M267.178,262.275a13.68,13.68,0,0,1-6.608-1.56c-1.429-.822-2.25-1.857-2.25-2.834V251l.548.333a18.133,18.133,0,0,0,16.609,0l.536-.321v7.144a3.941,3.941,0,0,1-2.226,2.631,13.68,13.68,0,0,1-6.608,1.488Z" transform="translate(49.418 48.023)" fill="#fff"/>
      <path id="Path_164" data-name="Path 164" d="M270.927,254.78a12.669,12.669,0,0,1-8.489,0,1.191,1.191,0,0,0-1.536,1.3,1.381,1.381,0,0,0,.762,1.334,13.752,13.752,0,0,0,9.942.083,1.381,1.381,0,0,0,.834-1.321C272.451,255.149,271.736,254.506,270.927,254.78Z" transform="translate(49.908 48.731)" fill="#e94e1b"/>
      <path id="Path_165" data-name="Path 165" d="M188.65,299.4l.357,4.3.845,2.536,1.869,3.381c.56.941,1.5.762,1.488-.119l.9,1.607c.822,1.262,2.012.19,1.369-1.107l-1.369-3.346,2.286,4.191c.9,1.191,2.1.44,1.572-1.191L196.139,305l2.024,3.655c.619.833,2,.31,1.607-1.191l-2.06-6.06a3.9,3.9,0,0,1,.214-2.3c.4-.8,3.5.857,3.5.857l2.834,1.631c1.036.155,1.488-.107,1.345-.8l-2.143-2.238-2.381-2.107-1.06-.929a13.525,13.525,0,0,0-4.679-2.179l-.131-.44-.262-.881-2.381.357-3.477.536.167,2.655-.2,1.191Z" transform="translate(36.137 55.842)" fill="#ffae80"/>
      <path id="Path_166" data-name="Path 166" d="M197.877,297.765l-4.763-1.1-2.524,4.262,2.191,7.691c-.083-2.048-.167-4.5,1.191-4.977l2.381-.333-1.929-1.3.3-1.9,4.084-.643Z" transform="translate(36.507 56.728)" fill="#fcaf75" opacity="0.3"/>
      <path id="Path_167" data-name="Path 167" d="M199.7,250.021l-1.4,16.812-1.191,13.978c-1.024,8.108-2.191,14.621-1.453,18.86a2.976,2.976,0,0,1-.083,1.191,4.762,4.762,0,0,1-2.548,2.56,15.061,15.061,0,0,1-3.572,1.333c-2.024-8.334-3.572-16.347-2.905-22.836l1.345-16.5C188.307,255.974,190.569,248.83,199.7,250.021Z" transform="translate(35.706 47.811)" fill="#50a4d9"/>
      <path id="Path_168" data-name="Path 168" d="M200.408,296.256l-8.418-.976a4.763,4.763,0,0,0,2.548-2.56l.131.44a13.572,13.572,0,0,1,4.691,2.167Z" transform="translate(36.774 55.975)" fill="#fcaf75" opacity="0.3"/>
      <path id="Path_169" data-name="Path 169" d="M196.472,278.516c-1.024,8.108-2.191,14.621-1.453,18.86a2.977,2.977,0,0,1-.083,1.191,4.762,4.762,0,0,1-2.548,2.56v-3.1c-.536-15.645-5.251-28.765.119-35.981l5.167,2.5Z" transform="translate(36.387 50.129)" fill="#3f81ab" opacity="0.5"/>
      <path id="Path_170" data-name="Path 170" d="M234.759,371.538c0-3.024-2.381-4.179-5.786-4.548-3.024,0-7.072,1.345-12.406,2.572l-6.084,3.322a13.586,13.586,0,0,0-.4,8.406,6.667,6.667,0,0,0,5.882,1.845l6.834-2.893.488-.988C228.686,378.718,234.759,376.241,234.759,371.538Z" transform="translate(40.13 70.133)" fill="#1d1d1b"/>
      <path id="Path_171" data-name="Path 171" d="M215.826,361.143c0-2.465-2.215-2.893-5.5-3.143-5.953,0-6.2,2.977-11.68,2.846l-5.382,3.274a16.1,16.1,0,0,0-.238,9.049,7.727,7.727,0,0,0,5.953,1.453l5.536-3.25.464-1C210.206,369.609,215.826,365.751,215.826,361.143Z" transform="translate(36.869 68.419)" fill="#1d1d1b"/>
      <path id="Path_172" data-name="Path 172" d="M196.407,297.59l19.836,8.334a68.335,68.335,0,0,1-.393,9.275c-1.25,9.144-2.75,25-2.75,25-2.655,11.74-5.953,15.169-6.537,30.528-.107,5.525-8.334,10.382-13.6,5.143-1.512-18.752-1.512-27.908,2.905-39.969-2.107-9.525-2.024-20.122-1.429-31.087C193.918,304.615,196.966,297.828,196.407,297.59Z" transform="translate(36.786 56.904)"/>
      <path id="Path_173" data-name="Path 173" d="M210.926,318.917c0,10.954-.119,19.812,2.524,29.325-3.739,12.049-2.727,20.931-.167,39.648A8.049,8.049,0,0,0,224,389.354,6.489,6.489,0,0,0,226.583,383l4.763-32.456s3.679-14.668,4.417-23.812-.131-32.778-.131-32.778c-1.774.488-9.382,4.382-11.144,4.6-11.8,1.488-22.622-2.727-26.027-9.525-.179.488-2.131,1.334-2.3,1.834a47.447,47.447,0,0,0-2.381,12.537C193.436,313.106,204.759,316.381,210.926,318.917Z" transform="translate(37.114 55.27)" fill="#3c3c3b"/>
      <path id="Path_174" data-name="Path 174" d="M232.969,270.068c5.358,13.811,7.632,28.015,1.762,35.5-1.679.75-6.691,3.572-8.334,4.06-10.192,3.215-22.765.833-30.111-9.656-1.7-4.358-4.382-21.026-5.655-36.3,0-6.989,2.322-11.99,8.263-13.645,10.6,2.548,21.431,9.12,32.385,18.55Z" transform="translate(36.514 47.838)" fill="#50a4d9"/>
      <path id="Path_175" data-name="Path 175" d="M219.19,251.352l-1,9.525c-6.179,0-15.847-4.322-14.633-7.608l3.25-6.239Z" transform="translate(38.959 47.266)" fill="#ffae80"/>
      <path id="Path_176" data-name="Path 176" d="M221.89,256.76c-2.679,2.215-5.882,1-9.644,0-5.5-2.548-9.465-6.31-8.918-13.466-.441-5.2,2.286-11.168,11.156-10.882,5.644.179,10.073,2.75,10.418,8.775S224.926,253.986,221.89,256.76Z" transform="translate(38.925 44.477)" fill="#ffae80"/>
      <path id="Path_177" data-name="Path 177" d="M221.738,242.91s-.179,2.536-.2,4.655a33.928,33.928,0,0,1-3.572,2.881l1.429,1.548c-2.036,6.287-12.323,3.155-14.288.4-1.131-1.417-2.607-6.882-2.3-12.371.143-.976,0-3.1,1.548-3.429-1.476,3.417,9.465,6.822,15.585,4.393C220.964,240.648,221.928,241.577,221.738,242.91Z" transform="translate(38.828 45.278)"/>
      <path id="Path_178" data-name="Path 178" d="M218.36,247.778c.679-.75-.357-2.512-1.119-2.75-1.06-.345-1.631,1.191-1.75,2.024a3.869,3.869,0,0,0,.619,2.917c.726,1.06,1.846,0,2.2-.845C218.574,248.516,217.932,248.255,218.36,247.778Z" transform="translate(41.241 46.875)" fill="#ffae80"/>
      <path id="Path_179" data-name="Path 179" d="M231.049,325.723c-.738,9.132-4.417,23.586-4.417,23.586l-4.762,32.468a6.513,6.513,0,0,1-2.619,6.358c1.81-17.514,2.619-24.884,0-37.6,9.275-34.135.691-42.862-1-48.649,2.834-.631,10.406-3.7,12.68-7.537C231.049,294.362,231.811,316.555,231.049,325.723Z" transform="translate(41.779 56.286)" fill="#1d1d1b" opacity="0.5"/>
      <path id="Path_180" data-name="Path 180" d="M226.884,283.273c0,2.107,0,4.191-.131,6.2-.167,3.905,1.191,9.335.31,12.811-1.655.9-6.8,3.477-8.525,3.7-2.215-14.645-1.524-16.669-.679-33.04C219.883,276.689,224.658,281.153,226.884,283.273Z" transform="translate(41.551 52.207)" fill="#3f81ab" opacity="0.5"/>
      <path id="Path_181" data-name="Path 181" d="M239.566,316.453l.941,1.441c.964,1.191,2.262.75,1.357-.774L237.78,310Z" transform="translate(45.502 59.269)" fill="#ffbb7d"/>
      <path id="Path_182" data-name="Path 182" d="M232.933,304.765c-.524,0-1.262,4.858-1.393,7.144,0,3.286.167,5.882,1.857,8.632l-.56,6.489c-.107,1.191,1.083,1.643,1.417.393l.762-4.917.953,6.846c.107,1.822,1.643,1.929,1.643.524l.179-7.727,1.631,7.477c.321,1.393,1.857,1.274,1.81-.167l-1.119-8.334,2.262,5.405c.571,1.488,1.893.941,1.512-.5l-4.405-14.085a15.943,15.943,0,0,0-3.489-3.381l-.5-4.453Z" transform="translate(44.313 58.147)" fill="#ffbb7d"/>
      <path id="Path_183" data-name="Path 183" d="M239.566,316.453l.941,1.441c.964,1.191,2.262.75,1.357-.774L237.78,310Z" transform="translate(45.502 59.269)" fill="#ffae80"/>
      <path id="Path_184" data-name="Path 184" d="M232.933,304.765c-.524,0-1.262,4.858-1.393,7.144,0,3.286.167,5.882,1.857,8.632l-.56,6.489c-.107,1.191,1.083,1.643,1.417.393l.762-4.917.953,6.846c.107,1.822,1.643,1.929,1.643.524l.179-7.727,1.631,7.477c.321,1.393,1.857,1.274,1.81-.167l-1.119-8.334,2.262,5.405c.571,1.488,1.893.941,1.512-.5l-4.405-14.085a15.943,15.943,0,0,0-3.489-3.381l-.5-4.453Z" transform="translate(44.313 58.147)" fill="#ffae80"/>
      <path id="Path_185" data-name="Path 185" d="M218.609,277.122l5.56,21.657a114.908,114.908,0,0,0,9.894,20.455l5.06-2.453a152.118,152.118,0,0,0-5.786-20.848l-2.3-20.014C229.718,259.941,216.109,264.477,218.609,277.122Z" transform="translate(41.79 50.821)" fill="#50a4d9"/>
      <path id="Path_186" data-name="Path 186" d="M218.544,257.578l.845,3.572s-5.727.5-13.311-3.774c-4.62-2.607-3.227-4.763-3.227-4.763l1.572-1.584C206.269,253.209,211.841,256.745,218.544,257.578Z" transform="translate(38.807 48.028)" fill="#3c89ba"/>
      <path id="Path_187" data-name="Path 187" d="M225,225" transform="translate(43.066 43.066)" fill="#ffb645"/>
      <line id="Line_3" data-name="Line 3" x2="536" transform="translate(0 268)" fill="#ff4555"/>
    </g>
  </g>
</svg>
