<svg xmlns="http://www.w3.org/2000/svg" width="52.944" height="65.243" viewBox="0 0 52.944 65.243">
  <defs>
    <style>
      .cls-1 {
        fill: #999;
      }
    </style>
  </defs>
  <g id="noodles" transform="translate(-48.259 0)">
    <g id="Group_2" data-name="Group 2" transform="translate(48.259 0)">
      <g id="Group_1" data-name="Group 1">
        <path id="Path_6" data-name="Path 6" class="cls-1" d="M100.911,16.856a1.6,1.6,0,0,0-1.3-.674h-4.2a1.59,1.59,0,0,0-1.471.979l-1.849,4.426L87,13.563a.957.957,0,0,0-.808-.444h-.647L89.156,2.783a1.594,1.594,0,0,0-1.275-2.1L85.7.362a1.6,1.6,0,0,0-1.735,1.053l-4.074,11.7H79.2L81.58,1.926A1.594,1.594,0,0,0,79.988,0L77.706.047a1.586,1.586,0,0,0-1.528,1.268l-2.464,11.8H63.228a.957.957,0,0,0-.808.444l-5.065,7.982-1.832-4.383a1.59,1.59,0,0,0-1.471-.979h-4.2a1.594,1.594,0,0,0-1.5,2.126l4.1,11.6a.969.969,0,0,0,.044.1L57.855,63.9a1.587,1.587,0,0,0,1.574,1.345H89.988A1.587,1.587,0,0,0,91.562,63.9l.691-4.376a.956.956,0,0,0-1.889-.3l-.649,4.107H59.7L54.52,30.544H94.9L91.4,52.666a.956.956,0,1,0,1.889.3L96.9,30.114a.953.953,0,0,0,.105-.207l4.1-11.6A1.6,1.6,0,0,0,100.911,16.856ZM85.688,2.292l1.535.224-3.707,10.6h-1.6ZM78,1.954l1.627-.033L77.251,13.082H75.676ZM53.6,27.415,50.3,18.1H53.84l2.254,5.393Zm1.586,1.114,8.565-13.5H85.663l8.565,13.5ZM95.86,27.415l-2.492-3.927L95.621,18.1h3.537Z" transform="translate(-48.259 0)"/>
      </g>
    </g>
    <g id="Group_4" data-name="Group 4" transform="translate(65.855 35.692)">
      <g id="Group_3" data-name="Group 3">
        <path id="Path_7" data-name="Path 7" class="cls-1" d="M195.224,280.092q-.133,0-.266,0a.956.956,0,1,0,.056,1.912c.07,0,.14,0,.21,0a6.962,6.962,0,1,1-5.277,2.421.956.956,0,1,0-1.449-1.249,8.876,8.876,0,1,0,6.726-3.085Z" transform="translate(-186.349 -280.092)"/>
      </g>
    </g>
  </g>
</svg>
