<svg xmlns="http://www.w3.org/2000/svg" width="65.001" height="65.001" viewBox="0 0 65.001 65.001">
  <defs>
    <style>
      .cls-1 {
        fill: #999;
      }
    </style>
  </defs>
  <g id="stick" transform="translate(-0.019 0.02)">
    <g id="_014---Candy" data-name="014---Candy" transform="translate(0.019 -0.02)">
      <path id="Shape" class="cls-1" d="M7.432,64.726,22.857,49.3l1.109,1.1a4.457,4.457,0,0,0,3.041,1.665,4.356,4.356,0,0,0,4.69-5.525,4.506,4.506,0,0,0,1.186.173,4.33,4.33,0,0,0,4.177-5.538,4.333,4.333,0,0,0,5.365-5.365,4.287,4.287,0,0,0,2.362.014,4.343,4.343,0,0,0,1.9-1.1,4.389,4.389,0,0,0,1.1-4.274,4.333,4.333,0,0,0,5.365-5.365,4.514,4.514,0,0,0,1.192.173,4.315,4.315,0,0,0,4.306-4.789,4.34,4.34,0,0,0,3.529-7.394l-1.548-1.548,3.09-3.09a4.355,4.355,0,1,0-6.159-6.159l-3.09,3.09c-2.019-2.018-1.448-1.455-1.648-1.614a4.418,4.418,0,0,0-6.838,1.1,4.392,4.392,0,0,0-.359,3.292,4.322,4.322,0,0,0-5.366,5.365A4.321,4.321,0,0,0,34.9,18.877a4.321,4.321,0,0,0-5.365,5.364,4.321,4.321,0,0,0-5.369,5.347A4.3,4.3,0,0,0,18.7,34.206a4.256,4.256,0,0,0-.47-.04A4.353,4.353,0,0,0,15.154,41.6L16.7,43.143,1.273,58.568a4.355,4.355,0,0,0,6.159,6.159ZM60.649,17.7a2.246,2.246,0,0,1-2.64.334L55.262,9.218l5.386,5.387A2.192,2.192,0,0,1,60.649,17.7ZM59.1,3.809a2.189,2.189,0,0,1,3.1,3.1L59.1,9.993l-3.1-3.1Zm-11.2,2.077A2.275,2.275,0,0,1,51.543,5.5a2.492,2.492,0,0,1,.6,1.006l4.266,13.7a2.186,2.186,0,0,1-1.475,2.808,2.441,2.441,0,0,1-2.915-1.6C51.5,19.725,48.255,9.335,47.731,7.649a2.26,2.26,0,0,1,.16-1.764Zm-3.443,4.241a2.473,2.473,0,0,1,2.3,1.668c4.389,14.083,3.118,9.987,4.3,13.769a2.238,2.238,0,0,1-.527,2.26,2.377,2.377,0,0,1-3.865-1.054c-.516-1.654-3.775-12.1-4.291-13.753a2.185,2.185,0,0,1,2.082-2.89Zm-5.366,5.365a2.474,2.474,0,0,1,2.306,1.674c.458,1.47,3.837,12.3,4.294,13.765a2.187,2.187,0,0,1-1.474,2.809,2.443,2.443,0,0,1-2.916-1.6C40.771,30.462,37.524,20.062,37,18.38a2.186,2.186,0,0,1,2.082-2.889Zm-5.365,5.366a2.473,2.473,0,0,1,2.3,1.668c4.39,14.083,3.119,9.987,4.3,13.769a2.234,2.234,0,0,1-.526,2.26A2.378,2.378,0,0,1,35.927,37.5c-3.289-10.558-3.2-10.265-4.3-13.75a2.185,2.185,0,0,1,2.086-2.895Zm-5.365,5.365a2.473,2.473,0,0,1,2.3,1.672c.489,1.569,3.806,12.2,4.3,13.767a2.188,2.188,0,0,1-1.476,2.809,2.443,2.443,0,0,1-2.915-1.6c-.51-1.636-3.783-12.118-4.293-13.758a2.186,2.186,0,0,1,2.085-2.888Zm-6.089,5.484A2.434,2.434,0,0,1,25.3,33.271c4.384,14.058,3.116,9.981,4.291,13.754a2.236,2.236,0,0,1-.525,2.26,2.3,2.3,0,0,1-1.869.626,2.543,2.543,0,0,1-2.017-1.725L20.964,34.663a2.329,2.329,0,0,1,1.3-2.957Zm-5.582,5.263a2.249,2.249,0,0,1,2.617-.348l2.747,8.8-5.365-5.357a2.183,2.183,0,0,1,0-3.093ZM2.805,60.1,18.233,44.673l3.094,3.094L5.9,63.195a2.189,2.189,0,0,1-3.1-3.1Z" transform="translate(-0.019 -0.98)"/>
    </g>
  </g>
</svg>
